<?xml version="1.0" encoding="utf-8"?>
<!-- Generator: Adobe Illustrator 27.6.1, SVG Export Plug-In . SVG Version: 6.00 Build 0)  -->
<svg version="1.1" id="Layer_1" xmlns="http://www.w3.org/2000/svg" xmlns:xlink="http://www.w3.org/1999/xlink" x="0px" y="0px"
	 viewBox="0 0 750 500" style="enable-background:new 0 0 750 500;" xml:space="preserve">
<style type="text/css">
	.st0{fill:#EBEBEB;}
	.st1{fill:#585BFA;}
	.st2{opacity:0.3;}
	.st3{fill:#263238;}
	.st4{fill:#E0E0E0;}
	.st5{fill:#F5F5F5;}
	.st6{fill:#FFFFFF;}
	.st7{fill:#FAFAFA;}
	.st8{fill:#FFBE9D;}
	.st9{fill:#EB996E;}
	.st10{fill:#455A64;}
	.st11{fill:#B78876;}
	.st12{fill:#AA6550;}
</style>
<g id="freepik--background-simple--inject-65">
	<path class="st0" d="M566.8,126l-2.6-4.2c-21.7-35.3-60.8-56.5-102.1-53.9c-5.3,0.3-10.6,1-15.8,2.1c-37.5,7.9-70.2,36-83.8,71.9
		c-8,21.1-10.2,45.4-25.3,62.2c-19.7,21.8-53.1,22.5-82.4,21.6s-62.8-0.1-82.3,21.8c-12.3,13.7-16.2,33.2-15.2,51.6
		c2.6,48.6,36.9,92.1,80.6,113.7s95,23.5,142.8,14c66.9-13.3,130.6-49.9,168.8-106.4S597.4,186.9,566.8,126z"/>
</g>
<g id="freepik--Plant--inject-65">
	<path class="st1" d="M116.8,425.4c-4.7-5.6-5.3-14.5-4.7-21.8s2.4-14.6,1.2-21.8c-0.7-4.3-2.3-8.4-2.9-12.6s0.2-9.1,3.6-11.9
		c3.8-3.2,9.8-2.4,13.8,0.6s6.3,7.7,8,12.4c3.7,10.3,5.1,21.7,2,32.1s-10.2,19.9-20.6,23"/>
	<path class="st1" d="M141.8,438c0.8-2.7,2.4-5.3,5-6.4s5.8-0.5,8.5,0.5s5.4,2.3,8.3,2.5s6.2-1.2,7.1-4c0.8-2.6-0.8-5.4-2.7-7.3
		c-6.9-6.6-17.7-6.4-24.3,0.5c-1.7,1.8-3,3.9-3.9,6.3"/>
	<g class="st2">
		<path d="M141.8,438c0.8-2.7,2.4-5.3,5-6.4s5.8-0.5,8.5,0.5s5.4,2.3,8.3,2.5s6.2-1.2,7.1-4c0.8-2.6-0.8-5.4-2.7-7.3
			c-6.9-6.6-17.7-6.4-24.3,0.5c-1.7,1.8-3,3.9-3.9,6.3"/>
	</g>
	<path class="st1" d="M118.8,449.7c-4.3-4-4-11.1-1.9-16.6s6.8-9.7,11.9-12.5c10.3-5.4,22.4-5.8,33-1.1c-5.2,0.2-10,3-12.7,7.4
		c-2.3,3.9-2.9,8.6-4.8,12.7C139.8,449.3,128.6,453.7,118.8,449.7"/>
	<path class="st3" d="M114.5,471c0-0.2,0-0.4,0-0.6c0-0.4,0-1,0-1.8c0-1.6,0.2-3.9,0.6-6.8c0.4-3.3,1-6.6,1.8-9.9
		c1-4,2.5-7.9,4.5-11.5c3.7-6.5,8.9-12.1,15.1-16.3c1.2-0.8,2.3-1.4,3.3-2s1.9-1,2.6-1.3l1.7-0.7c0.2-0.1,0.4-0.2,0.6-0.2
		c-0.2,0.1-0.4,0.2-0.6,0.3l-1.6,0.8c-0.7,0.4-1.6,0.8-2.6,1.4s-2.1,1.2-3.2,2c-6.1,4.2-11.2,9.8-14.9,16.2
		c-4.3,7.6-5.5,15.5-6.4,21.1c-0.4,2.8-0.6,5.1-0.7,6.7c-0.1,0.8-0.1,1.4-0.1,1.8C114.6,470.6,114.5,470.8,114.5,471z"/>
	<path class="st1" d="M73.5,409.9c-8.7,5.3-8.7,10.1-7.2,14.6s6.8,7.7,11.3,6c2.5-1,4.3-3.1,5.9-5.3s3-4.5,5.2-6.1s5.3-2.2,7.5-0.6"
		/>
	<g class="st2">
		<path d="M73.5,409.9c-8.7,5.3-8.7,10.1-7.2,14.6s6.8,7.7,11.3,6c2.5-1,4.3-3.1,5.9-5.3s3-4.5,5.2-6.1s5.3-2.2,7.5-0.6"/>
	</g>
	<path class="st1" d="M67,415.7c2.3-3.2,7.9-4.1,11.5-2.5s6.2,4.7,8.5,7.8s4.6,6.4,7.8,8.6s7.8,3,11,0.8c2.1-1.5,3.4-3.9,3.7-6.5
		c0.3-2.5,0.1-5.1-0.5-7.6c-0.8-3.7-2-7.5-4.9-9.8c-3.3-2.6-7.8-2.7-12-2.6c-4.8,0.2-9.6,0.5-14.1,2.2S68.9,411.3,67,415.7"/>
	<path class="st3" d="M106.9,470.6c0-0.2-0.1-0.5-0.1-0.8c0-0.5,0-1.3-0.1-2.2c-0.1-1.9-0.1-4.6-0.2-8s-0.2-7.4-0.5-11.8
		s-0.6-9.3-1.2-14.4c-0.3-2.5-0.8-4.9-1.4-7.3c-0.7-2.2-1.6-4.3-2.7-6.4c-1.8-3.5-4.2-6.6-7-9.3c-2-1.8-4.2-3.3-6.6-4.4
		c-0.7-0.3-1.3-0.6-2-0.9c-0.2-0.1-0.5-0.2-0.7-0.3c0.2,0.1,0.5,0.1,0.7,0.2c0.7,0.2,1.3,0.5,2,0.8c2.4,1.1,4.7,2.6,6.7,4.4
		c2.9,2.7,5.4,5.9,7.2,9.4c1.1,2.1,2,4.2,2.7,6.5c0.7,2.4,1.2,4.9,1.5,7.4c0.7,5.1,1,10,1.2,14.4s0.3,8.5,0.4,11.8s0.1,6.1,0.1,8
		c0,0.9,0,1.6,0,2.2C106.9,470.1,106.9,470.3,106.9,470.6z"/>
	<path class="st3" d="M110.8,470.6c0,0,0-0.1-0.1-0.2l-0.2-0.7c-0.2-0.6-0.4-1.6-0.7-2.9c-0.6-3.6-0.9-7.2-0.7-10.8
		c0.2-5.4,1.1-10.7,2.6-15.8c1.8-5.8,4.2-12,6.4-18.5c2.1-6.2,3.5-12.6,4.1-19.1c0.5-5.3,0.6-10.7,0.4-16c-0.1-4.6-0.4-8.2-0.5-10.8
		c-0.1-1.2-0.1-2.2-0.2-2.9c0-0.3,0-0.6,0-0.8c0-0.1,0-0.2,0-0.3c0,0.1,0,0.2,0,0.3c0,0.2,0,0.5,0.1,0.8c0.1,0.7,0.2,1.7,0.2,2.9
		c0.2,2.5,0.5,6.2,0.7,10.8c0.3,5.4,0.2,10.7-0.3,16c-0.6,6.6-1.9,13-4.1,19.2c-2.2,6.6-4.7,12.8-6.5,18.5
		c-1.5,5.1-2.4,10.4-2.7,15.7c-0.2,3.6,0,7.2,0.5,10.8c0.2,1.2,0.4,2.2,0.6,2.9c0.1,0.3,0.1,0.5,0.2,0.7
		C110.8,470.4,110.8,470.5,110.8,470.6z"/>
</g>
<g id="freepik--Fence--inject-65">
	<rect x="439.8" y="311.3" class="st4" width="8.7" height="159.4"/>
	<path class="st1" d="M452.9,305.9c0,4.8-3.9,8.7-8.7,8.7c-4.8,0-8.7-3.9-8.7-8.7c0-4.8,3.9-8.7,8.7-8.7c0,0,0,0,0,0
		C449,297.1,452.9,301,452.9,305.9C452.9,305.9,452.9,305.9,452.9,305.9z"/>
	<rect x="612.1" y="311.3" class="st4" width="8.7" height="159.4"/>
	<path class="st1" d="M625.2,305.9c0,4.8-3.9,8.7-8.7,8.7c-4.8,0-8.7-3.9-8.7-8.7s3.9-8.7,8.7-8.7c0,0,0,0,0,0
		C621.3,297.1,625.2,301,625.2,305.9C625.2,305.9,625.2,305.9,625.2,305.9z"/>
	<rect x="415.1" y="326.7" class="st1" width="222.1" height="39.7"/>
	<polygon class="st5" points="440.2,326.7 439.8,327.4 417,366.5 415.1,366.5 415.1,326.7 	"/>
	<polygon class="st5" points="496.3,326.7 473.1,366.5 442.8,366.5 452,350.7 466,326.7 	"/>
	<polygon class="st5" points="552.5,326.7 529.2,366.5 498.9,366.5 522.1,326.7 	"/>
	<polygon class="st5" points="608.6,326.7 585.3,366.5 555,366.5 578.2,326.7 	"/>
	<polygon class="st5" points="637.2,326.7 637.2,366.5 611.1,366.5 634.3,326.7 	"/>
	<rect x="415.1" y="388.1" class="st1" width="222.1" height="39.7"/>
	<polygon class="st5" points="440.2,388.1 439.8,388.8 417,427.8 415.1,427.8 415.1,388.1 	"/>
	<polygon class="st5" points="496.3,388.1 473.1,427.8 442.8,427.8 452,412.1 466,388.1 	"/>
	<polygon class="st5" points="552.5,388.1 529.2,427.8 498.9,427.8 522.1,388.1 	"/>
	<polygon class="st5" points="608.6,388.1 585.3,427.8 555,427.8 578.2,388.1 	"/>
	<polygon class="st5" points="637.2,388.1 637.2,427.8 611.1,427.8 634.3,388.1 	"/>
	<path class="st3" d="M637.2,366.5c0,0,0-0.2,0-0.7s0-1.1,0-2c0-1.8,0-4.4-0.1-7.7c0-6.8-0.1-16.7-0.1-29.3l0.2,0.2l-222.1,0.2l0,0
		l0.4-0.4v39.7l-0.4-0.4l158.1,0.2l46.9,0.1l12.7,0.1h3.3L637.2,366.5c0-0.1-0.3-0.1-1-0.1h-3.2l-12.6,0l-46.8,0.1l-158.4,0.2h-0.4
		v-40.5h0.5l222.1,0.2h0.2v0.2c0,12.7-0.1,22.7-0.1,29.5c0,3.3,0,5.9,0,7.7c0,0.8,0,1.5,0,2S637.2,366.5,637.2,366.5z"/>
	<path class="st3" d="M637.2,427.8c0,0,0-0.2,0-0.7s0-1.1,0-2c0-1.8,0-4.4-0.1-7.7c0-6.8-0.1-16.7-0.1-29.3l0.2,0.2l-222.1,0.2l0,0
		l0.4-0.4v39.7l-0.4-0.4l158.1,0.2l46.9,0.1h12.7h3.3h1.1c0,0-0.3,0-1.1,0h-3.2l-12.6,0.1l-46.8,0.1l-158.4,0.2h-0.4v-40.4h0.5
		l222.1,0.2h0.2v0.2c0,12.7-0.1,22.7-0.1,29.5c0,3.3,0,5.9,0,7.7c0,0.8,0,1.5,0,2S637.2,427.8,637.2,427.8z"/>
</g>
<g id="freepik--Floor--inject-65">
	<path class="st3" d="M687.8,470.7c0,0.1-140.5,0.3-313.8,0.3s-313.8-0.1-313.8-0.3s140.5-0.3,313.8-0.3S687.8,470.5,687.8,470.7z"
		/>
</g>
<g id="freepik--Sign--inject-65">
	<rect x="149.3" y="227.9" class="st4" width="9.1" height="242.8"/>
	<path class="st3" d="M158.4,470.7c0,0,0-0.4,0-1.3s0-2.1,0-3.7c0-3.2,0-8,0-14.1c0-12.2,0-29.9-0.1-51.9
		c0-43.8-0.1-104.5-0.1-171.9l0.3,0.3h-9.1l0.3-0.3c-0.1,117-0.2,215.3-0.2,242.8l-0.1-0.1h6.9C157.7,470.6,158.4,470.6,158.4,470.7
		l-2.1-0.1h-6.9h-0.1v-0.1c0-27.5-0.1-125.8-0.2-242.8v-0.3h9.6v0.3c0,67.5-0.1,128.3-0.1,172.1c0,21.9-0.1,39.6-0.1,51.8
		c0,6.1,0,10.8,0,14c0,1.6,0,2.8,0,3.6S158.4,470.7,158.4,470.7z"/>
	<circle class="st1" cx="153.8" cy="185.1" r="52.9"/>
	<path class="st6" d="M201.5,183.1c-0.1-0.3-0.1-0.5-0.1-0.8c0-0.6-0.1-1.3-0.2-2.3c0-0.5-0.1-1.1-0.1-1.7s-0.2-1.3-0.3-2
		c-0.2-1.7-0.5-3.3-1-4.9c-1.1-4.4-2.9-8.7-5.3-12.6c-3.1-5.2-7.2-9.8-12.1-13.4c-5.9-4.5-12.7-7.5-19.9-8.8
		c-8.3-1.5-16.9-0.8-24.8,2.1c-2.1,0.8-4.2,1.7-6.2,2.7c-1,0.5-1.9,1.2-2.9,1.8c-1,0.6-1.9,1.3-2.8,2c-1.9,1.4-3.7,2.9-5.4,4.6
		c-1.7,1.7-3.2,3.5-4.6,5.5c-2.9,3.9-5.2,8.3-6.8,13c-3.2,9.7-3.2,20.1,0,29.8c1.5,4.7,3.8,9.1,6.7,13c1.4,1.9,3,3.8,4.6,5.5
		c1.7,1.6,3.5,3.1,5.3,4.6c0.9,0.7,1.9,1.4,2.9,2c1,0.6,1.9,1.2,2.9,1.8c22.3,11.9,49.9,4.2,62.9-17.4c2.4-3.9,4.2-8.2,5.3-12.6
		c0.5-1.6,0.8-3.3,1-4.9c0.1-0.7,0.2-1.4,0.3-2s0.1-1.2,0.1-1.7c0.1-1,0.1-1.7,0.2-2.3C201.4,183.6,201.4,183.4,201.5,183.1
		c0,0.3,0,0.6,0,0.8c0,0.6,0,1.3-0.1,2.3c0,0.5,0,1.1-0.1,1.7s-0.2,1.3-0.3,2c-0.2,1.7-0.5,3.3-0.9,4.9c-1.1,4.5-2.8,8.8-5.2,12.8
		c-7,11.9-18.7,20.1-32.3,22.7c-8.4,1.6-17.2,0.9-25.2-2c-2.2-0.8-4.2-1.7-6.3-2.8c-1-0.6-2-1.2-3-1.8c-1-0.6-2-1.3-2.9-2
		c-3.9-2.8-7.4-6.3-10.2-10.2c-3-4-5.3-8.5-6.9-13.2c-3.3-9.8-3.3-20.5,0-30.4c1.6-4.8,3.9-9.2,6.9-13.2c1.4-2,3-3.8,4.7-5.6
		c1.7-1.7,3.5-3.2,5.5-4.6c0.9-0.7,1.9-1.4,2.9-2c1-0.6,2-1.2,3-1.8c2-1.1,4.1-2,6.3-2.7c8.1-2.9,16.8-3.6,25.2-2
		c13.5,2.6,25.3,10.9,32.3,22.7c2.4,4,4.1,8.3,5.2,12.8c0.4,1.6,0.7,3.3,0.9,5c0.1,0.7,0.2,1.4,0.3,2s0,1.2,0.1,1.7
		c0,1,0,1.7,0.1,2.3C201.5,182.6,201.5,182.9,201.5,183.1z"/>
	<rect x="126.2" y="177.1" class="st7" width="55.1" height="11.5"/>
</g>
<g id="freepik--character-2--inject-65">
	<path class="st3" d="M352.1,133.2c-1.3,0.1,0.4,2.9-0.9,3.1c-1.6,0.3-3.2-0.9-4.2-2.3s-1.7-3-2.9-4.1c-1.6-1.5-4-1.8-6.1-2.5
		c-8.9-3-13.6-12.7-10.6-21.6c0.3-0.8,0.6-1.5,1-2.2l7.3-14.9c-2.3-1.4-2.8-4.8-1.6-7.1c1.4-2.4,3.8-3.9,6.5-4.3
		c3.9-0.6,7.9,0.7,10.6,3.5c1.5,1.5,2.6,3.5,4.6,4.2c1.7,0.6,3.7,0.1,5.5,0.3c2.5,0.4,4.6,2,5.8,4.2c1.2,2.2,1.9,4.5,2.1,7
		c0.3,2.2,0.4,4.7,2,6.4c0,0,2.4,2.2,2.4,4.7c0,5.8-5.5,4.7-5.8,6.8c-0.5,4.1,1.3,6.1-2.8,8.6c0,0,0.7,1.8-2,5.1s-5.7,2.8-5.7,2.8
		L352.1,133.2z"/>
	<path class="st8" d="M330.9,92.3c-2,0.2-3.4,1.9-3.4,3.8l0,0l2.3,50.9c0.1,6,8.9,9.4,15.4,9.2l0,0c6.5-0.1,6.7-3.3,6.8-9.1
		c0.1-9.6,0.1-13.1,0.1-13.1s8.2-1.4,9.9-12.1c0.8-5.3,0.5-14.1,0.1-21.2c-0.4-6.4-4.7-14.3-11.1-13.6L330.9,92.3z"/>
	<path class="st9" d="M352.1,134.2c-5.1,0.1-10.1-1.2-14.4-3.8c0,0,3.6,7.6,14.4,6.5V134.2z"/>
	<path class="st3" d="M336.8,86.4c0,2.2,1,4.2,2.6,5.7c1.7,1.4,3.9,1.9,6,1.6c1.6-0.3,3.5-1.1,4.9-0.3s1.6,3.2,2.9,4.3
		c1.9,1.6,4.9,0.1,7.3,0.8c1.9,0.6,3,2.3,4.3,3.8s3.1,2.9,4.9,2.3c-0.1-1.7-0.3-3.3-0.7-4.9c-0.5-1.6-1.4-3-2.8-4
		c-0.8-0.5-1.7-0.8-2.4-1.4c-1.5-1.2-1.9-3.4-2.9-5.1c-1.3-2.3-3.6-3.8-6.1-4.1c-2.1-0.2-4.3,0.4-6.4-0.1c-1.5-0.4-2.9-1.4-4.4-1.7
		c-3-0.6-5.8,1.6-8,3.7"/>
	<path class="st3" d="M331.1,109.7c-0.6,0.3-0.9,1-0.6,1.6c0.2,0.4,0.6,0.7,1,0.7c3.6,0.8,4.1-6.2,3.3-8.2c1.4-1.1,2.6-2.4,3.6-3.8
		c1.2-2.2,1.7-4.8,1.7-7.3c1.3,0.1,6.9-1.8,6.3-1.9c-1.4-0.4-4.1-1.3-4.8-2.4c-1.5-2.6-4.2-4.1-7.2-4.1c-3,0.2-5.5,2.4-6.1,5.4
		c-3.6,0.1-6.8,2.2-8.4,5.4c-1.6,3.3-1.5,7.3,0.3,10.5c0.6,0.8,1,1.6,1.1,2.6c0,1.2-0.9,2.1-1.5,3.1c-1.7,2.7-1.6,6.4-0.3,9.3
		s2.2,4,4.1,4.5c3.7,1.2-0.6,8.7,5.5,8.7"/>
	<path class="st8" d="M331.3,112.6c-0.1-1.7-1.5-3.1-3.3-3c-0.5,0-0.9,0.1-1.3,0.4c-1.1,0.6-1.9,1.9-1.8,4.3
		c0.3,6.5,6.7,4.9,6.7,4.7S331.4,115.3,331.3,112.6z"/>
	<path class="st9" d="M329.5,116.6c0,0-0.1,0.1-0.3,0.2c-0.3,0.1-0.6,0.1-0.9,0.1c-0.9-0.5-1.4-1.4-1.4-2.4c0-0.6,0-1.1,0.2-1.6
		c0.1-0.4,0.4-0.7,0.8-0.9c0.3-0.1,0.6,0,0.7,0.3c0.1,0.2,0.1,0.3,0.1,0.3s0.1-0.1,0.1-0.4c0-0.2-0.1-0.3-0.3-0.4
		c-0.2-0.1-0.4-0.2-0.6-0.1c-0.5,0.1-1,0.5-1.1,1c-0.2,0.6-0.4,1.2-0.3,1.8c0,1.2,0.7,2.2,1.8,2.7c0.3,0.1,0.7,0,1-0.2
		C329.5,116.7,329.5,116.6,329.5,116.6z"/>
	<path class="st10" d="M337.5,89c-0.5,0.3-1,0.6-1.3,1.1c-0.7,1.4-0.9,3-0.5,4.5v0.2h-0.2c-1.9,0.5-3.4,1.9-4.2,3.7
		c-0.2,0.5-0.3,1-0.3,1.6c0,0.6,0.1,1.1,0.2,1.7c0.1,0.6,0.2,1.2,0.2,1.8c0,0.7-0.1,1.3-0.5,1.9c-0.8,1.1-2,1.9-3.2,2.4
		c-1.1,0.5-2.1,1.2-3,2c-1.5,1.4-2.3,3.4-2.4,5.4c-0.1,1.4,0.2,2.8,0.9,4c0.4,0.9,0.8,1.3,0.8,1.3s-0.1-0.1-0.3-0.3
		c-0.2-0.3-0.5-0.6-0.6-1c-1.8-3.2-1.2-7.2,1.4-9.8c0.9-0.9,2-1.6,3.1-2.1c1.2-0.5,2.2-1.3,3-2.3c0.7-1,0.4-2.3,0.2-3.4
		c-0.1-0.6-0.2-1.2-0.2-1.8c0-0.6,0.2-1.2,0.4-1.7c0.8-1.9,2.5-3.3,4.5-3.8l-0.1,0.2c-0.4-1.6-0.2-3.3,0.6-4.7
		c0.3-0.3,0.6-0.6,1-0.8C337.1,89.1,337.3,89,337.5,89z"/>
	<path class="st10" d="M368.7,110.6c-0.1-0.2,0.7-0.4,1.5-1.3c0.5-0.5,0.8-1.2,1-1.9c0.2-0.9,0-1.8-0.4-2.6c-0.7-1-1.6-1.7-2.6-2.2
		c-0.7-0.4-1.4-0.8-2-1.3c-0.7-0.6-1.3-1.3-1.8-2.2c-0.9-1.6-1.2-3.4-1.9-4.8c-0.3-0.7-0.7-1.3-1.2-1.8c-0.5-0.5-1-0.7-1.7-0.8
		c-1.4-0.2-3.3,0.5-5.6,0.1c-1-0.2-2-0.7-2.9-1.4c-0.7-0.6-1.3-1.2-1.9-1.8c-0.9-1.1-2-2.1-3.1-2.8c-1-0.6-2.2-0.8-3.4-0.8
		c-1.8,0.1-3.5,0.8-4.7,2.1c-0.9,0.9-1.3,1.6-1.5,1.5s-0.1-0.9,0.7-2.1c0.5-0.8,1.2-1.4,1.9-1.9c1-0.7,2.2-1.2,3.4-1.3
		c1.5-0.2,3.1,0.1,4.5,0.7c1.5,0.8,2.8,1.8,3.8,3.1c0.9,1.1,2.2,2,3.6,2.4c0.8,0.1,1.5,0.1,2.3,0c1-0.2,2.1-0.2,3.1-0.2
		c1.2,0.1,2.4,0.7,3.2,1.6c0.7,0.8,1.3,1.7,1.7,2.7c0.8,1.8,1,3.5,1.6,4.8c0.3,0.6,0.7,1.1,1.1,1.5c0.5,0.4,1.1,0.9,1.7,1.2
		c0.6,0.4,1.2,0.9,1.8,1.3c0.6,0.5,1,1.1,1.4,1.8c0.5,1.2,0.6,2.6,0.1,3.9c-0.3,0.9-0.9,1.7-1.7,2.2
		C369.7,110.9,368.8,110.8,368.7,110.6z"/>
	<path class="st4" d="M328.4,130.9l-1.8,6.9c0,0-9.2,13.3-10.6,15.5s-4.7,10.6-5.1,14.7s14.3,62,14.3,61.4s42.4,12,42.4,12l8.6-7.8
		c0,0,1.5-18.9,0.6-20.5s-0.9-26.6-3.1-35.7s-20.1-29.7-20.1-29.7l-1.6-4.5v4.5L328.4,130.9z"/>
	<path class="st4" d="M324.1,158.6c-3,6.4-2.3,14,1.9,19.8c6.7,9.2,16.3,22.2,17,22.2c1.2,0,24.9-21.9,24.9-21.9s-13.2-20.6-20-25.2
		c-3.2-2.1-13.3-6.2-17.7-3.9C328.4,150.5,326.1,154.4,324.1,158.6z"/>
	<path class="st3" d="M332.1,148.8c-0.2,0,0-1.8,0.5-3.8c0.2-1.3,0.6-2.5,1.2-3.6c0,1.3-0.3,2.6-0.7,3.8
		C332.8,146.4,332.5,147.6,332.1,148.8z"/>
	<path class="st3" d="M352,147.7c-0.3-0.1-0.5-0.3-0.8-0.4l-2.1-1.4l0.2-0.1c0,1,0.2,2.1,0.4,3.1c0.3,1.3,0.5,2.6,0.5,3.9v0.5
		l-0.4-0.3c-2-1.6-4.3-3.5-6.9-5.3c-4.3-3.1-8.4-5.6-11.4-7.4c-1.5-0.9-2.7-1.6-3.6-2c-0.5-0.2-0.9-0.5-1.3-0.8
		c0.5,0.1,1,0.3,1.4,0.6c0.9,0.4,2.1,1,3.7,1.9c4,2.2,7.8,4.6,11.5,7.3c2.6,1.9,4.9,3.7,6.9,5.4l-0.4,0.2c0-1.3-0.2-2.6-0.5-3.9
		c-0.2-1-0.3-2.1-0.3-3.1v-0.3l0.2,0.2l2,1.5C351.5,147.3,351.8,147.5,352,147.7z"/>
	<path class="st8" d="M347,197.2L347,197.2L347,197.2z"/>
	<path class="st8" d="M347,197.1"/>
	<path class="st8" d="M385.7,192.3c-2.8-1.8-7.5-0.6-7.5-0.6L366.5,180L347,197.2c2,2.4,15.9,13.9,21,15.5
		c5.5,1.8,11.7,0.7,13.8-2.2s5.3-7.3,5.3-7.3S388.5,194.1,385.7,192.3z"/>
	<path class="st8" d="M378.5,177.4l5.9,4.1c0,0,5.4,0.6,7.5,5.5s2.6,15.7-4.6,15.9l-16.1-11.7v-9L378.5,177.4z"/>
	<path class="st9" d="M390.3,186.1c0,0.1-0.9-0.7-2.5-1.5c-4.1-2.2-9.1-2.4-13.3-0.4c-1.6,0.7-2.5,1.4-2.6,1.3s0.2-0.2,0.6-0.5
		c0.6-0.4,1.2-0.8,1.8-1.1c4.3-2.2,9.5-2,13.7,0.4c0.6,0.4,1.2,0.8,1.8,1.2C390.2,185.9,390.4,186.1,390.3,186.1z"/>
	<polygon class="st4" points="373.8,180.5 380.4,176.1 357,151.8 	"/>
	<path class="st3" d="M329.1,182.6c0,0,0.1,0.1,0.3,0.3l0.8,0.9l2.8,3.6l10.3,13h-0.3c0.9-0.7,1.8-1.5,2.7-2.3s1.9-1.6,2.8-2.5
		c1.9-1.7,4-3.5,6.1-5.4l13.5-12.1l0,0.3c-1.2-1.8-2.5-3.6-3.8-5.5c-2.5-3.5-5.1-6.9-7.8-10.1c-1.3-1.6-2.6-3.1-3.9-4.6
		c-1.2-1.5-2.6-2.8-4-4.1c-1.4-1.2-2.9-2.2-4.5-3c-1.6-0.7-3.2-1.2-4.9-1.5c-1.6-0.4-3.2-0.6-4.8-0.8c-1.5-0.1-2.9,0.2-4.2,0.9
		c-1.2,0.7-2.2,1.6-3,2.6c-0.8,0.9-1.4,1.9-2,3c-1,1.7-1.7,3.4-2.3,5.3c-0.4,1.2-0.6,2.4-0.8,3.6c-0.1,0.4-0.1,0.7-0.1,1
		c0,0.1,0,0.2-0.1,0.3c0.1-1.7,0.3-3.3,0.8-4.9c0.5-1.9,1.3-3.7,2.2-5.4c0.6-1.1,1.3-2.1,2-3c0.9-1.1,1.9-2,3.1-2.7
		c1.3-0.8,2.9-1.1,4.4-1c1.6,0.2,3.2,0.4,4.8,0.8c1.7,0.3,3.4,0.9,5,1.6c1.7,0.8,3.3,1.8,4.6,3c1.4,1.3,2.8,2.7,4.1,4.1
		c1.3,1.5,2.6,3,3.9,4.6c2.6,3.2,5.2,6.5,7.8,10.1c1.3,1.9,2.6,3.7,3.8,5.5l0.1,0.2l-0.2,0.1l-13.6,12.1l-6.1,5.4
		c-1,0.9-1.9,1.7-2.8,2.5l-2.8,2.3l-0.2,0.1l-0.1-0.2l-10.1-13.2l-2.7-3.7l-0.7-1C329.2,182.8,329.1,182.7,329.1,182.6z"/>
	<path class="st9" d="M387,203.1c0,0,0.1-0.5,0.3-1.4c0.1-0.5,0.1-1.1,0.1-1.7c0-0.7,0.1-1.4,0.1-2.2c0-1.9-0.6-3.8-1.7-5.3
		c-1.5-1.8-3.9-2.6-6.2-2.3c-0.9,0.1-1.7,0.4-2.4,0.9l-0.2,0.1l-0.1-0.1c-3.1-3.2-5.8-6-7.8-8l-2.3-2.4c-0.3-0.3-0.6-0.6-0.8-0.9
		c0.3,0.2,0.6,0.5,0.9,0.8l2.4,2.3c2,2,4.8,4.7,7.9,7.9h-0.3c0.8-0.5,1.7-0.9,2.6-1c2.5-0.4,5,0.5,6.6,2.5c1.2,1.6,1.8,3.6,1.7,5.6
		c0,0.9-0.1,1.6-0.1,2.2c0,0.9-0.2,1.9-0.5,2.7C387.1,203,387,203.1,387,203.1z"/>
	<path class="st3" d="M357,152.5c0.4,0.3,0.7,0.7,1,1.1c0.6,0.7,1.4,1.8,2.5,3.1c2.7,3.4,5.2,6.9,7.3,10.7c1.2,2.1,2.2,4.3,2.9,6.6
		c0.6,1.9,0.8,3.8,0.7,5.8c-0.1,1.6-0.1,2.9-0.1,3.9c0,0.5,0,1-0.1,1.4c-0.1-0.5-0.1-1-0.1-1.4c0-1,0-2.4,0-3.9
		c0.1-1.9-0.2-3.8-0.8-5.7c-0.7-2.2-1.7-4.4-2.9-6.4c-2.2-3.7-4.6-7.3-7.2-10.7c-0.9-1.3-1.7-2.3-2.3-3.2
		C357.5,153.3,357.2,152.9,357,152.5z"/>
	<path class="st3" d="M343,214c0.1-0.1,1.1,3,3.1,6.4s4.2,5.7,4.1,5.8c-0.6-0.4-1.1-0.9-1.5-1.4c-2.3-2.5-4-5.5-5.1-8.8
		C343.2,215.4,343,214.7,343,214z"/>
	<path class="st3" d="M355.7,227.5c-1.2-2.8-2.1-5.7-2.6-8.6C354.3,221.7,355.2,224.5,355.7,227.5z"/>
	<path class="st1" d="M339.9,161.4c0.2-0.3,2.9,5.7,2.9,5.7s1.4,3.9-3.3,6.2c-2.4,1.4-5.5,0.5-6.8-1.9c-0.1-0.2-0.2-0.3-0.2-0.5
		l-2-4.4c2.1-0.4,3.6-2.2,3.6-4.3C334.1,162.2,338,164.4,339.9,161.4z"/>
	<path class="st10" d="M370.2,438.9l-1.4,21c0,0,20.9,6.9,21,10.8L349,471l0.8-32.8L370.2,438.9z"/>
	<path class="st3" d="M349,471l0.1-3.3l39.4,1.1c0.8,0.4,1.4,1.3,1.5,2.2H349z"/>
	<path class="st3" d="M374.9,272.3l1.8-34.2l-53.1-1.9c0,0-6.8,16-8.4,22.2c-1.6,6.2-2.7,14.2-0.6,22s17,33.9,17,33.9l14.3,144.1
		h32.5L374.9,272.3z"/>
	<path class="st3" d="M374.6,244c0.4,3.9,30.2,96.1,26.8,110.1s-27.5,80-27.5,80L374.6,244z"/>
	<path class="st10" d="M375.4,250.1c0.1,0,0.5,38.6,0.9,86.2s0.5,86.2,0.4,86.2s-0.6-38.6-0.9-86.2S375.3,250.1,375.4,250.1z"/>
	<path class="st10" d="M365.9,458.4c-0.1,0-1.9-45.2-3.9-101s-3.5-101-3.4-101s1.9,45.2,3.9,101S366,458.4,365.9,458.4z"/>
	<path class="st10" d="M356.9,242.1c0,0.5,0,0.9-0.1,1.4c-0.2,1.3-0.5,2.5-0.9,3.7c-1.3,4-3.4,7.8-6.3,10.9
		c-3.3,3.7-7.3,6.2-10.5,6.9c-1.3,0.3-2.6,0.4-3.8,0.1c-0.3-0.1-0.7-0.2-1-0.3c-0.2-0.1-0.3-0.1-0.3-0.2s0.5,0.1,1.4,0.2
		c1.2,0.1,2.5,0,3.7-0.3c3.1-0.8,6.9-3.3,10.2-6.9c2.8-3.1,5-6.7,6.3-10.7C356.6,244.1,356.8,242.1,356.9,242.1z"/>
	<path class="st10" d="M390,346.4c-4.7-0.7-9.5,0.1-13.9,2.1c0.5-0.5,1.1-0.8,1.8-1.1c1.5-0.7,3.2-1.2,4.9-1.5
		c1.7-0.2,3.4-0.2,5.1,0C388.6,346,389.3,346.2,390,346.4z"/>
	<path class="st10" d="M340,326.4c-0.6-0.8-1.1-1.6-1.5-2.5c-0.9-1.6-2.1-3.7-3.5-6.1s-2.8-4.5-3.7-6c-0.6-0.8-1.1-1.6-1.5-2.5
		c0.7,0.7,1.3,1.5,1.8,2.3c1,1.5,2.4,3.5,3.9,5.9s2.6,4.5,3.4,6.2C339.3,324.6,339.7,325.5,340,326.4z"/>
	<path class="st10" d="M323.6,222.4c-0.8-0.3-1.3,15.2-1.3,15.2s26.8,5.2,54.4,1.2l0.7-13.5C377.4,225.2,353.5,232.3,323.6,222.4z"
		/>
	<path class="st10" d="M344.4,257.4L344.4,257.4c-2.6,0-4.8-2.2-4.8-4.8v-20c0-2.6,2.1-4.8,4.8-4.8l0,0c2.7,0,4.8,2.1,4.8,4.8v20
		C349.2,255.2,347,257.4,344.4,257.4z"/>
	<path class="st3" d="M344.4,257.4c0.2-0.1,0.5-0.1,0.7-0.1c0.7-0.1,1.3-0.4,1.8-0.8c0.9-0.6,1.5-1.5,1.9-2.5
		c0.2-0.6,0.3-1.3,0.2-1.9c0-0.7,0-1.5,0-2.3c0-3.2,0-7-0.1-11.1c0-2.1,0-4.3,0-6.6c-0.3-2.5-2.6-4.2-5.1-3.9
		c-2,0.3-3.6,1.9-3.9,3.9c0,2.2,0,4.5,0,6.6c0,4.2,0,7.9-0.1,11.1c0,0.8,0,1.5,0,2.3c0,0.7,0,1.3,0.2,1.9c0.3,1,1,1.9,1.9,2.5
		c0.6,0.4,1.2,0.6,1.8,0.8c0.2,0,0.5,0.1,0.7,0.1c-0.2,0-0.5,0-0.7,0c-0.7-0.1-1.4-0.3-1.9-0.7c-0.9-0.6-1.6-1.5-2-2.5
		c-0.2-0.6-0.3-1.3-0.3-2c0-0.7,0-1.5,0-2.3c0-3.2,0-7,0-11.1c0-2.1,0-4.3,0-6.6c0-2.8,2.2-5,5-5s5,2.2,5,5c0,2.3,0,4.5,0,6.6
		c0,4.2,0,7.9-0.1,11.1c0,0.8,0,1.5,0,2.3c0,0.7-0.1,1.4-0.3,2c-0.4,1-1.1,1.9-2,2.5c-0.6,0.4-1.2,0.6-1.9,0.7
		C345,257.4,344.7,257.4,344.4,257.4z"/>
	<path class="st10" d="M344.4,236.3c-0.6,0.1-1,0.5-1.1,1.1c-0.1,0.6,0.3,1.1,0.9,1.3c0.6,0.1,1.2-0.3,1.4-0.9
		c0.1-0.7-0.3-1.3-1-1.4C344.5,236.3,344.4,236.3,344.4,236.3"/>
	<path class="st3" d="M344.4,236.3c0,0,0.1-0.1,0.3,0c0.3,0,0.6,0.2,0.8,0.4c0.3,0.4,0.4,0.9,0.3,1.3c-0.2,0.6-0.7,0.9-1.3,1
		c-0.6,0-1.2-0.3-1.4-0.9c-0.2-0.4-0.1-0.9,0.2-1.3C343.8,236.2,344.4,236.3,344.4,236.3c0,0.1-0.4,0.2-0.8,0.7
		c-0.2,0.3-0.2,0.6-0.1,0.9c0.1,0.4,0.5,0.6,0.9,0.6c0.4,0,0.7-0.3,0.9-0.6c0.1-0.3,0-0.7-0.1-0.9
		C344.8,236.4,344.3,236.4,344.4,236.3z"/>
	<path class="st10" d="M339.4,241.7c2.9,2,6.7,2.3,9.9,0.8"/>
	<path class="st3" d="M349.3,242.5c0,0.1-0.5,0.4-1.4,0.7c-1.2,0.4-2.4,0.6-3.7,0.5c-1.3-0.1-2.5-0.4-3.6-1
		c-0.9-0.4-1.3-0.9-1.2-0.9c1.5,0.7,3.2,1.2,4.9,1.4C346,243.2,347.7,243,349.3,242.5z"/>
	<path class="st10" d="M329.8,284.3L329.8,284.3c-2.7-0.1-4.9-2.3-4.9-5l0.9-55.8c0.1-2.7,2.3-4.9,5-4.9l0,0c2.7,0.1,4.9,2.3,4.9,5
		l-0.9,55.7C334.8,282.1,332.6,284.3,329.8,284.3C329.8,284.3,329.8,284.3,329.8,284.3z"/>
	<path class="st3" d="M329.8,284.3c0.5,0,1-0.1,1.4-0.2c1.3-0.4,2.4-1.3,3-2.6c0.4-0.9,0.6-1.9,0.5-2.9c0-1.1,0-2.3,0-3.6
		c0-2.6,0.1-5.5,0.1-8.7c0.1-6.5,0.2-14.2,0.3-22.7c0.1-4.3,0.1-8.8,0.2-13.4c0-2.3,0.1-4.7,0.1-7.1c-0.2-2.6-2.6-4.5-5.1-4.2
		c-2.2,0.2-4,1.9-4.2,4.1c-0.1,2.3-0.1,4.8-0.1,7.1c-0.1,4.6-0.1,9.1-0.2,13.4c-0.1,8.5-0.3,16.2-0.4,22.7c-0.1,3.2-0.1,6.1-0.2,8.7
		c0,1.3-0.1,2.5-0.1,3.6c-0.1,1,0,2,0.4,2.9c0.6,1.3,1.7,2.2,3,2.7C328.9,284.1,329.3,284.2,329.8,284.3c-0.5,0-1-0.1-1.4-0.2
		c-1.4-0.4-2.5-1.4-3.1-2.7c-0.4-0.9-0.6-2-0.5-3c0-1.1,0-2.3,0-3.6c0-2.6,0.1-5.5,0.1-8.7c0.1-6.5,0.2-14.1,0.3-22.7
		c0.1-4.3,0.1-8.8,0.2-13.4c0-2.3,0-4.7,0.1-7.1c0.4-2.9,3-4.9,5.9-4.5c2.4,0.3,4.3,2.3,4.5,4.7c0,2.4-0.1,4.8-0.1,7.1
		c-0.1,4.6-0.1,9.1-0.2,13.4c-0.2,8.5-0.3,16.2-0.4,22.7c-0.1,3.2-0.1,6.1-0.2,8.7c0,1.3-0.1,2.5-0.1,3.6c0.1,1-0.1,2.1-0.6,3
		c-0.6,1.3-1.8,2.2-3.2,2.6C330.8,284.3,330.3,284.3,329.8,284.3z"/>
	<path class="st10" d="M358.8,256.8L358.8,256.8c-2.6,0-4.8-2.1-4.8-4.7c0,0,0,0,0-0.1v-20c0-2.7,2.1-4.8,4.8-4.8l0,0
		c2.6,0,4.8,2.2,4.8,4.8v20C363.6,254.6,361.5,256.8,358.8,256.8z"/>
	<path class="st3" d="M358.8,256.8c0,0,0.2,0,0.7-0.1c0.7-0.1,1.3-0.4,1.8-0.7c0.9-0.6,1.5-1.5,1.9-2.5c0.2-0.6,0.3-1.3,0.2-1.9
		c0-0.7,0-1.5,0-2.3c0-3.2,0-7-0.1-11.1c0-2.1,0-4.3,0-6.6c-0.2-2.5-2.5-4.3-4.9-4.1c-1,0.1-1.9,0.5-2.6,1.2
		c-0.8,0.8-1.3,1.8-1.4,2.9c0,2.2,0,4.5,0,6.6c0,4.2,0,7.9-0.1,11.1c0,0.8,0,1.6,0,2.3c0,0.7,0,1.3,0.2,1.9c0.3,1,1,1.9,1.9,2.5
		c0.6,0.4,1.2,0.6,1.9,0.7c0.5,0.1,0.7,0.1,0.7,0.1c-0.2,0-0.5,0-0.7,0c-0.7-0.1-1.4-0.3-1.9-0.7c-0.9-0.6-1.6-1.5-2-2.5
		c-0.2-0.6-0.3-1.3-0.3-2c0-0.7,0-1.5,0-2.3c0-3.2,0-6.9-0.1-11.1c0-2.1,0-4.3,0-6.6c0.3-2.6,2.4-4.5,5-4.6c2.6,0,4.7,2,5,4.6
		c0,2.3,0,4.5,0,6.6c0,4.2,0,7.9,0,11.1c0,0.8,0,1.6,0,2.3c0,0.7-0.1,1.4-0.3,2c-0.4,1-1.1,1.9-2,2.5c-0.6,0.4-1.3,0.6-1.9,0.7
		C359.4,256.8,359.1,256.8,358.8,256.8z"/>
	<path class="st10" d="M358.8,234.8c-0.6,0.1-1,0.5-1.1,1.1c-0.1,0.6,0.3,1.1,0.9,1.3c0.6,0.1,1.3-0.3,1.4-0.9
		c0.1-0.7-0.3-1.3-1-1.5C358.9,234.8,358.9,234.8,358.8,234.8"/>
	<path class="st3" d="M358.8,234.8c0,0,0.1-0.1,0.3,0c0.3,0,0.6,0.2,0.8,0.4c0.3,0.4,0.4,0.9,0.3,1.3c-0.2,0.6-0.7,0.9-1.3,1
		c-0.7,0-1.4-0.5-1.4-1.3c0-0.3,0.1-0.7,0.3-1C358.3,234.7,358.8,234.7,358.8,234.8c0,0.1-0.4,0.2-0.8,0.7c-0.2,0.3-0.2,0.6-0.1,0.9
		c0.1,0.4,0.5,0.6,0.9,0.6c0.6,0,1-0.5,1-1c0-0.2-0.1-0.4-0.2-0.6C359.3,234.9,358.8,234.9,358.8,234.8z"/>
	<path class="st10" d="M358.8,246.6c-0.6,0.1-1,0.5-1.1,1.1c-0.1,0.6,0.3,1.1,0.9,1.3c0.6,0.1,1.3-0.3,1.4-0.9
		c0.1-0.7-0.3-1.3-1-1.4C359,246.6,358.9,246.6,358.8,246.6"/>
	<path class="st3" d="M358.8,246.6c0,0,0.1-0.1,0.3-0.1c0.3,0,0.6,0.2,0.8,0.4c0.3,0.4,0.4,0.9,0.3,1.3c-0.2,0.5-0.7,0.9-1.3,1
		c-0.8,0-1.4-0.6-1.4-1.3c0-0.3,0.1-0.7,0.3-0.9C358.3,246.4,358.9,246.5,358.8,246.6c-0.1,0-0.5,0.1-0.8,0.6
		c-0.2,0.3-0.2,0.6-0.1,0.9c0.1,0.4,0.5,0.6,0.9,0.6c0.6,0,1-0.5,1-1c0-0.2-0.1-0.4-0.2-0.5C359.3,246.7,358.8,246.7,358.8,246.6z"
		/>
</g>
<g id="freepik--character-1--inject-65">
	<path class="st10" d="M215.6,433l-6.8,27.1L197.1,480c-0.8,1.4-0.3,3.1,1.1,3.9c0,0,0.1,0.1,0.1,0.1l0,0c0.8,0.4,1.8,0.4,2.6,0
		l26.2-16.3l7.6-27.1L215.6,433z"/>
	<path class="st3" d="M201,483.9l26.2-16.3l1.1-4l-30.1,20.2C199,484.4,200.1,484.4,201,483.9z"/>
	<path class="st10" d="M287.2,439l-1.4,21.2c0,0,21.1,7,21.2,10.9l-41.2,0.3l0.8-33.1L287.2,439z"/>
	<path class="st3" d="M265.9,471.4l0.1-3.3l39.8,1.1c0.9,0.4,1.4,1.3,1.5,2.2H265.9z"/>
	<path class="st11" d="M191.2,125.8c-0.8-1.3-1-2.4-0.6-4.8s2.4-19.1,2.7-20.5c0.5-2.6,2.4-3.3,2.6-1.4s0.3,9.5,0.8,9.6
		s1-12.1,2-13.5s1.9-1.4,2.4-0.8c0.3,0.3,0.5,0.6,0.6,1c0,0,0.9-1.5,1.8-1.4c1.8,0.2,1.8,2.3,1.8,2.3l0.1,5.2c0,0,0.1-4.2,1.4-4.7
		c0.7-0.3,1.6-0.1,2,1.2s0,6.3,0,6.7s0.1,13.6,0.1,13.6c1-1.2,1.8-2.6,2.4-4.1c0.7-1.7,1.8-2.3,3.2-1.9s1.5,1.8,1.1,2.8
		s-1.4,4.3-1.4,4.3l-2.5,4.8l-8.5,7.6l-3.1,7c0,0-9.9-1-11.1-6.3L191.2,125.8z"/>
	<path class="st12" d="M205.3,116.7c-0.9,0.5-1.8,1.2-2.6,1.9c-1.8,1.8-2.9,4.2-3,6.8c0,0.3,0,0.5,0,0.8l-0.5,0.1
		c-0.5-2.3-1.4-4.6-2.7-6.6c-1-1.6-1.7-2.4-1.6-2.5s0.2,0.2,0.6,0.6c0.5,0.5,0.9,1.1,1.4,1.7c1.4,2,2.4,4.3,2.9,6.7l-0.5,0.1
		c0-0.3,0-0.6,0-0.8c0-1.5,0.4-2.9,1.1-4.2c0.6-1.1,1.3-2,2.2-2.8c0.6-0.5,1.3-1,2-1.3C204.7,116.8,205,116.8,205.3,116.7z"/>
	<path class="st12" d="M205.1,111.9c0,0.2-2.2,0.3-4.9,0.7s-4.9,1-4.9,0.9c1.5-0.7,3.1-1.2,4.8-1.4
		C201.7,111.7,203.4,111.7,205.1,111.9z"/>
	<path class="st12" d="M201.2,110.9c-0.2-2.6-0.2-5.2-0.1-7.8c0-2.6,0.1-5.2,0.5-7.8c0.2,2.6,0.2,5.2,0,7.8
		C201.7,105.7,201.5,108.3,201.2,110.9z"/>
	<path class="st12" d="M205,110.7c-0.2-2.3-0.2-4.6-0.1-6.9c0-2.3,0.1-4.6,0.4-6.9c0.2,2.3,0.2,4.6,0.1,6.9
		C205.4,106.2,205.3,108.5,205,110.7z"/>
	<path class="st3" d="M243.6,240.8c-2.8-1.4-5.1-3.8-6.4-6.7c0.1-0.1,1.2,1.7,3,3.5S243.7,240.7,243.6,240.8z"/>
	<path class="st3" d="M277.9,229.5c0-0.1,1.2,0.2,3.2,0.4c5.2,0.7,10.5,0.4,15.6-0.8c2-0.4,3.1-0.8,3.2-0.8
		c-0.2,0.2-0.5,0.3-0.8,0.4c-0.5,0.2-1.3,0.5-2.3,0.7c-5.1,1.4-10.5,1.7-15.8,0.8c-1-0.2-1.8-0.4-2.4-0.5
		C278.5,229.7,278.2,229.6,277.9,229.5z"/>
	<polygon class="st3" points="289.2,454.5 302.6,273.7 303.2,227.2 228.9,233.2 204.3,455.6 233.8,454.9 263.9,268.2 262.4,453.6 	
		"/>
	<path class="st10" d="M247.6,261.7c0.1,0-6.2,42.9-14.2,95.8s-14.6,95.8-14.7,95.8s6.2-42.9,14.2-95.8S247.5,261.7,247.6,261.7z"/>
	<path class="st10" d="M277.2,453.3c0-0.2,0-0.3,0-0.5c0-0.4,0-0.8,0.1-1.5c0.1-1.3,0.2-3.2,0.4-5.6c0.3-4.9,0.8-11.9,1.4-20.6
		c1.1-17.4,2.6-41.4,3.9-67.9s2.1-50.6,2.7-68c0.3-8.7,0.5-15.7,0.6-20.6c0.1-2.4,0.1-4.3,0.2-5.6c0-0.6,0-1.1,0.1-1.5s0-0.5,0-0.5
		c0,0.2,0,0.3,0,0.5v1.5c0,1.3,0,3.2-0.1,5.6c-0.1,4.9-0.2,11.9-0.4,20.6c-0.4,17.4-1.2,41.4-2.5,68s-2.8,50.5-4,67.9
		c-0.6,8.7-1.1,15.7-1.5,20.6c-0.2,2.4-0.4,4.3-0.5,5.6c0,0.6-0.1,1.1-0.1,1.5S277.2,453.3,277.2,453.3z"/>
	<path class="st4" d="M251.6,120.4l-5.2,7.8c0,0-16.8,2.2-19.4,3.4s-3.7,5.5-3.7,5.5l4.7,57.2c0,0,1.2,24.3,1,28.1l0,0
		c0,0,0,3.8-0.2,6.5c0,2.5,0.1,5.1,0.4,7.6c0,0,21.4,5.3,23.2,5.2s10.9-2.1,10.9-2.1l27.5-1l8.8-2.9l1.7-4.7l-1.1-2
		c0,0,3.8-4.4,4.1-6.7s-1-24.8-1-24.8V191l3.9-58c0,0-4.9-3.1-7.6-3.6c-7.6-1.4-14.3-3.3-14.3-3.3l-7.2-8.3L251.6,120.4z"/>
	<path class="st3" d="M263,145.9c0,0.1,0,0.2,0,0.2v0.7l-0.2,2.7c-0.2,2.3-0.5,5.7-0.9,9.9s-0.6,9.2-0.9,14.8s-0.3,11.7-0.3,18.1
		s0.3,12.5,0.6,18.1s0.7,10.6,1.1,14.7s0.8,7.6,1,9.9c0.1,1.1,0.2,2,0.3,2.7l0.1,0.7c0,0.1,0,0.2,0,0.2c0-0.1-0.1-0.2-0.1-0.2
		c0-0.2-0.1-0.4-0.1-0.7c-0.1-0.7-0.2-1.6-0.4-2.7c-0.3-2.3-0.8-5.7-1.2-9.9s-0.9-9.2-1.2-14.7s-0.6-11.7-0.6-18.1
		s0.1-12.6,0.3-18.1s0.6-10.6,1-14.8s0.7-7.6,1-9.9c0.1-1.1,0.3-2,0.4-2.7l0.1-0.7C263,146.1,263,146,263,145.9z"/>
	<path class="st4" d="M261.4,146.9l16.8,22.4c2,3.1,4.1,6.1,6.4,9c4.1,5.3,18.4,15.3,21.4,15.9s8.2,1.1,11.5-4.8s4.7-18.9,4.7-18.9
		L307.3,133c0,0-5.7,3.3-8.4,8.6s-3,16.7-3,16.7l-15.8-14.2l-6.9-8.2L261.4,146.9z"/>
	<path class="st3" d="M305.9,170.5c-0.6-0.6-1.1-1.3-1.5-2.1c-0.8-1.4-1.4-3.4-2.5-5.5c-0.5-1-1.1-1.9-1.9-2.6
		c-0.6-0.6-1.4-1.1-2.2-1.5c-0.8-0.3-1.6-0.4-2.4-0.5c0,0,0.2-0.1,0.7-0.1c0.6,0,1.3,0.1,1.9,0.3c0.9,0.3,1.7,0.8,2.4,1.4
		c0.8,0.8,1.5,1.7,2,2.7c1.1,2.1,1.7,4.2,2.4,5.6S306,170.5,305.9,170.5z"/>
	<path class="st3" d="M280.1,144.1c-0.2,0.8-0.5,1.6-1,2.3c-1,1.8-2.2,3.3-3.7,4.7c-1.5,1.4-3.2,2.5-5,3.3c-0.7,0.4-1.5,0.6-2.4,0.8
		c-0.1-0.2,3.6-1.3,7-4.4S280,144,280.1,144.1z"/>
	<path class="st3" d="M266.5,146.8c0,0,0.1-0.1,0.4-0.2c0.4-0.1,0.8,0,1.1,0.1c0.5,0.3,0.8,0.9,0.8,1.5c0,1-0.8,1.8-1.8,1.8
		c-0.2,0-0.5,0-0.7-0.1c-0.9-0.4-1.3-1.5-0.9-2.4c0,0,0-0.1,0-0.1C265.8,147.2,266.1,146.9,266.5,146.8c0.2-0.2,0.4-0.1,0.4-0.1
		s-0.7,0.1-0.9,0.9c-0.2,0.4-0.1,0.9,0.1,1.3c0.3,0.5,0.9,0.7,1.4,0.5c0.5-0.2,0.9-0.6,0.9-1.2c0-0.5-0.2-0.9-0.6-1.2
		c-0.3-0.2-0.6-0.3-0.9-0.3C266.7,146.9,266.5,146.9,266.5,146.8z"/>
	<path class="st4" d="M188.1,130.3l-5.5,9.6l-3.4,1.2c0,0-14.7,22.3-6.5,29.5s21.6,6.8,26.2,4.6s28.2-12.9,28.2-12.9l-0.2-30.8
		c-4.3,2.1-8.3,4.7-12.1,7.6c-2.9,2.5-17.1,10.6-17.1,10.6l4.2-12.8L188.1,130.3z"/>
	<path class="st4" d="M244.9,129.9c0,3.6-1,7.2-2.9,10.3c4.7-1.9,9.1-4.6,12.8-8.1c1.5,2.1,3.3,3.9,5.5,5.4
		c-1.2-3.1-3.4-5.6-5.2-8.4s-3.4-5.9-3.2-9.2L244.9,129.9z"/>
	<path class="st3" d="M286.4,199.8c-0.3,0.5-0.6,1-0.9,1.4c-0.3,0.5-0.7,1-1.2,1.6s-1,1.3-1.7,2.1c-1.5,1.8-3.2,3.4-4.9,5
		c-2.1,1.9-4.4,3.7-6.7,5.3c-2.4,1.6-4.8,3-7.4,4.3c-2.1,1-4.2,1.9-6.5,2.7c-0.9,0.4-1.8,0.6-2.6,0.8s-1.4,0.4-2,0.5
		c-0.6,0.2-1.1,0.3-1.7,0.4c0.5-0.2,1.1-0.4,1.6-0.5c0.5-0.2,1.2-0.4,1.9-0.6s1.6-0.5,2.5-0.9c2.2-0.8,4.3-1.7,6.4-2.8
		c2.5-1.3,5-2.7,7.3-4.3c2.3-1.6,4.6-3.4,6.7-5.2c1.7-1.5,3.4-3.2,4.9-4.9c0.7-0.7,1.2-1.4,1.8-2s0.9-1.1,1.3-1.6
		C285.6,200.6,286,200.2,286.4,199.8z"/>
	<path class="st3" d="M252.6,132.2c-0.1,0.4-0.2,0.7-0.5,1c-0.5,0.8-1.2,1.5-1.9,2.2c-1.8,1.7-4.8,3.3-7.9,5.3l-0.2,0.2l-0.6,0.4
		l0.2-0.7c0.8-3,1.8-5.9,3-8.8c0.4-1.1,0.8-2,1.1-2.6c0.1-0.3,0.3-0.6,0.5-0.9c-0.1,0.3-0.2,0.7-0.3,1c-0.3,0.7-0.6,1.6-0.9,2.6
		c-0.8,2.2-1.9,5.3-2.9,8.8l-0.4-0.3l0.3-0.2c3.1-2,6.1-3.5,7.9-5.1C251,134.3,251.8,133.3,252.6,132.2z"/>
	<path class="st3" d="M229,222.4c-0.1-0.2-0.1-0.5-0.1-0.7c0-0.5-0.1-1.2-0.1-2.1c-0.1-1.9-0.2-4.5-0.4-7.7s-0.3-7.1-0.5-11.4
		c-0.1-2.1-0.1-4.4-0.3-6.7s-0.4-4.7-0.6-7.2c-1.6-19.3-2.7-33.1-3-35.8c0.1,0.2,0.2,0.5,0.2,0.7c0.1,0.5,0.2,1.2,0.3,2.1
		c0.2,1.8,0.5,4.4,0.8,7.7c0.6,6.5,1.4,15.4,2.2,25.3c0.2,2.5,0.4,4.9,0.6,7.2s0.2,4.6,0.3,6.8c0.1,4.3,0.3,8.1,0.4,11.4
		s0.2,5.8,0.2,7.7c0,0.9,0,1.6,0,2.1C229,221.9,229,222.1,229,222.4z"/>
	<path class="st3" d="M199.1,146.6c0.1,0-0.6,1.4-1.5,3.8c-1.8,4.8-2.9,9.8-3.2,14.9c-0.1,1.7,0,3.2-0.2,4.5c-0.1,1-0.7,2-1.5,2.6
		c-0.2,0.2-0.5,0.3-0.8,0.4c-0.2,0-0.3,0-0.3,0c0.3-0.1,0.6-0.3,0.9-0.6c0.7-0.7,1.2-1.6,1.3-2.5c0.2-1.2,0-2.8,0.1-4.4
		c0.1-1.8,0.3-3.7,0.6-5.5c0.6-3.3,1.5-6.5,2.8-9.6c0.5-1.2,0.9-2.1,1.3-2.7C198.7,147.2,198.9,146.9,199.1,146.6z"/>
	<path class="st3" d="M197,168.5c-0.2-0.9-0.2-1.8-0.2-2.8c-0.1-1.7-0.1-4,0-6.6s0.3-4.9,0.5-6.6c0.1-0.9,0.2-1.8,0.4-2.7
		c0.1,0.9,0,1.8-0.1,2.8c-0.1,1.7-0.2,4-0.3,6.6s-0.1,4.9-0.2,6.6C197.2,166.7,197.1,167.6,197,168.5z"/>
	<path class="st3" d="M198.1,148c-0.9,0.1-1.8,0-2.6-0.2c-2.1-0.4-4.1-1.1-6-2.1c-1.9-1-3.6-2.3-5.1-3.8c-0.7-0.6-1.2-1.3-1.7-2.1
		c2.1,2.1,4.4,3.9,7,5.4C192.4,146.5,195.2,147.5,198.1,148z"/>
	<path class="st3" d="M195.3,139.1c-0.2,0.4-0.2,0.8-0.2,1.2c0.1,0.4,0.3,0.7,0.7,0.9c0.6,0.2,1.4-0.1,1.6-0.7
		c0.1-0.3,0.1-0.5,0-0.8c-0.2-0.4-0.5-0.6-0.9-0.7C196.1,138.9,195.7,139,195.3,139.1c0,0,0-0.1,0.2-0.3c0.3-0.2,0.7-0.3,1-0.2
		c0.5,0.1,1,0.4,1.3,0.8c0.3,0.6,0.1,1.4-0.4,1.9c-0.5,0.5-1.2,0.7-1.9,0.3c-0.5-0.3-0.8-0.8-0.8-1.3c0-0.4,0.1-0.7,0.2-1
		C195.2,139.2,195.3,139.1,195.3,139.1z"/>
	<path class="st1" d="M247.1,153.3c0.3-0.1-0.1,6.5-0.1,6.5s-0.7,4.2-5.9,3.9c-2.8,0.1-5.1-2.1-5.1-4.9c0-0.2,0-0.4,0-0.6l0.3-4.9
		c2,0.6,4.3-0.3,5.3-2.1C241.6,151.2,244.1,155.1,247.1,153.3z"/>
	<path class="st3" d="M308.3,135.5c0.1,0.2,0.2,0.4,0.3,0.6c0.2,0.4,0.4,1,0.8,1.8c0.7,1.6,1.6,4,2.9,7c2.4,6.1,5.9,14.9,10.2,25.5
		v0.1v0.1c-0.7,3.7-1.4,7.7-2.1,11.9c-0.3,2.2-1,4.3-2,6.2c-0.5,1-1.1,2-1.9,2.9c-0.4,0.5-0.8,0.9-1.2,1.3c-0.4,0.4-0.9,0.7-1.5,1
		c-2.2,1-4.6,1.3-7,0.8c-1.2-0.1-2.4-0.5-3.5-1.1l-3.1-2c-4.2-2.7-8.3-5.7-12.1-9c-3-2.7-5.7-5.6-8.1-8.8c-2.4-3.1-4.7-6.2-6.8-9.3
		c-4.2-6.2-8.1-12.1-12-17.3l-0.1-0.2l0.2-0.1l11.9-11l0.1-0.1l0.1,0.1c6.8,7,12.4,12.6,16.3,16.5l4.4,4.5l1.1,1.2
		c0.3,0.3,0.4,0.4,0.4,0.4s-0.1-0.1-0.4-0.4l-1.2-1.1l-4.5-4.4L273.1,136h0.3l-11.8,11.1v-0.3c4,5.2,7.8,11.2,12,17.3
		c2.1,3.1,4.3,6.2,6.8,9.2c2.4,3.1,5.1,6.1,8.1,8.7c3.8,3.3,7.8,6.3,12,9l3,2c1,0.6,2.1,0.9,3.3,1.1c2.3,0.5,4.6,0.2,6.7-0.7
		c0.5-0.2,1-0.6,1.4-0.9c0.4-0.4,0.8-0.8,1.1-1.2c0.7-0.9,1.3-1.8,1.8-2.8c1-1.9,1.6-4,2-6.1c0.8-4.2,1.5-8.1,2.1-11.9v0.1
		c-4.2-10.7-7.6-19.4-10-25.6l-2.7-7.1c-0.3-0.8-0.5-1.4-0.7-1.9S308.3,135.5,308.3,135.5z"/>
	<path class="st4" d="M285.4,126.6c-0.4,4-4.9,11.8-6.3,14c0,0-2.9-5.8-4.5-9l-0.6,4.5c-1.2-1.1-0.1-7.5-0.3-7.4l4.3-10.9
		L285.4,126.6z"/>
	<path class="st3" d="M277.3,117.9c0.3-0.1,0.6-0.1,0.9-0.2l0,0l0,0c1.2,1.2,3.8,4.2,7.4,8.2l0.1,0.1v0.1c-0.8,3.8-2.2,7.4-4.1,10.8
		c-0.7,1.3-1.5,2.6-2.3,3.7l-0.3,0.4l-0.2-0.4c-0.9-2.3-2.1-4.3-3.1-6.2c-0.9-1.7-1.6-3.5-2.2-5.3h0.3c-0.8,1.8-1.4,3.2-1.9,4.3
		c-0.2,0.5-0.5,1.1-0.8,1.6c0.2-0.6,0.4-1.1,0.6-1.6c0.5-1.1,1.1-2.6,1.8-4.4l0.2-0.5l0.1,0.5c0.6,1.8,1.3,3.5,2.2,5.2
		c1,1.9,2.2,3.9,3.1,6.2h-0.5c0.8-1.2,1.6-2.4,2.3-3.7c1.9-3.3,3.3-6.9,4.1-10.7l0,0.2c-3.5-4.1-6.1-7.1-7.1-8.4h0.1
		C277.9,117.9,277.6,117.9,277.3,117.9z"/>
	<path class="st3" d="M293.9,146.3c0.5,2,0.9,4.1,1.1,6.1c0.2,1.7,0.5,3.2,0.6,4.4c0,0.4,0.1,0.9,0.1,1.3c0,0.1,0,0.3-0.1,0.4
		c-0.1,0.1-0.1,0-0.1,0s0,0,0,0c0.1,0.2,0-0.6-0.2-1.6s-0.5-2.6-0.7-4.4C294.1,150.5,293.9,148.4,293.9,146.3z"/>
	<path class="st11" d="M264.9,135.4L264.9,135.4c-6.8,0.1-12.5-5.3-12.6-12.1c0-0.3,0-0.6,0-0.8c0.1-2.4,0.2-4.1,0.2-4.1
		s-9.9-1.3-10.3-11.1s0.8-32.5,0.8-32.5l0,0c11.3-5.2,24.5-3.9,34.5,3.4l1.5,1.1l-1.6,38.5c0,0-4.3,14.4-7.6,16.5
		C267.9,135.5,267.2,135.4,264.9,135.4z"/>
	<path class="st12" d="M252.5,118.4c4.5-0.1,9-1.6,12.7-4.1c0,0-3,7.2-12.8,6.5L252.5,118.4z"/>
	<path class="st11" d="M278,89.6c0.2-0.1,6.7-2.2,6.7,4.6s-6.8,5.3-6.8,5.1S278,89.6,278,89.6z"/>
	<path class="st12" d="M280,96.7c0,0,0.1,0.1,0.3,0.2c0.3,0.1,0.6,0.1,0.9,0c0.9-0.6,1.4-1.6,1.4-2.6c0-0.6-0.1-1.2-0.3-1.7
		c-0.1-0.4-0.5-0.8-0.9-0.9c-0.3-0.1-0.6,0.1-0.7,0.3c-0.1,0.2,0,0.3-0.1,0.3s-0.1-0.1-0.1-0.4c0-0.2,0.1-0.3,0.3-0.4
		c0.2-0.1,0.4-0.2,0.6-0.2c0.6,0.1,1,0.5,1.2,1.1c0.3,0.6,0.4,1.2,0.4,1.9c0.1,1.2-0.6,2.4-1.7,2.9c-0.4,0.1-0.8,0-1.1-0.2
		C280,96.9,279.9,96.7,280,96.7z"/>
	<path class="st3" d="M270.6,81.2c-0.3,1-0.4,2.1-0.1,3.1c0.3,1,1.4,1.6,2.4,1.3c0,0,0.1,0,0.1,0c-0.3,1-0.5,2.1-0.4,3.2
		c0.1,1.1,0.6,2.1,1.4,2.8c0.8,0.7,2,0.9,3,0.5c1-0.5,1.5-1.6,1.2-2.7c1,0.5,2.2,0.2,2.7-0.8c0,0,0-0.1,0.1-0.1
		c0.4-1.1,0.2-2.2-0.5-3.1c1,0,1.9-0.8,2-1.8c0.1-1-0.2-2-0.8-2.8c-0.5-0.8-1.2-1.5-1.8-2.3s-1-1.5-1.8-1.8c-0.7-0.1-1.4,0-2,0.4
		c-2.1,1-4.1,2.2-5.9,3.6"/>
	<path class="st3" d="M281.3,74.9c0,0,4.6,0.5,5.2-2.5c1.7-8.1-9.5-11.5-9.5-11.5s-3.9-1-10.3-3.4c-2.5-0.9-4.8-2.1-7.1-3.4
		c-2.1-1.3-4.7-1.2-6.7,0.1c-3.7,2.4-7.6,4.4-11.8,5.8c0,0-4.4,1.1-4.3,6.8c0,2.6,4.4,4.6,4.4,4.6L281.3,74.9z"/>
	<path class="st10" d="M280.6,79.3l0.8-4.7c0,0-26.1-9.4-39.5-3.3v5.3L280.6,79.3z"/>
	<path class="st3" d="M234.9,80.1c0,0,3.2,2.6,10.3,3c12.9,0.7,33.9-3.8,33.9-3.8l-37.3-2.6L234.9,80.1z"/>
	<path class="st4" d="M259.3,63.6c0.2-0.1-0.1,5.9-0.1,5.9s-0.6,3.8-5.3,3.5c-2.5,0.1-4.6-1.9-4.6-4.4c0-0.2,0-0.4,0-0.6l0.3-4.4
		c1.8,0.6,3.8-0.2,4.8-1.9C254.3,61.7,256.5,65.2,259.3,63.6z"/>
	<path class="st10" d="M280.5,79.5c-0.4,0.1-0.7,0.2-1.1,0.2l-3,0.5c-2.6,0.4-6.1,1-10,1.6s-7.5,0.9-10.1,1.1
		c-1.3,0.1-2.4,0.1-3.1,0.1c-0.4,0-0.8,0-1.2,0c0.4-0.1,0.7-0.1,1.1-0.2l3.1-0.3c2.6-0.2,6.1-0.7,10-1.2s7.5-1.1,10-1.4
		c1.3-0.2,2.3-0.3,3.1-0.3C279.7,79.5,280.1,79.5,280.5,79.5z"/>
	<polygon class="st1" points="254.2,105.9 254.2,112.7 258,112.7 258,106 	"/>
	<path class="st11" d="M258.9,108.8c0,0-0.8,0.7-0.7,2.8s2.2,3.9,2.2,3.9v1.8l-6.6-7.4c0,0-0.6-1-1.6-0.7c-1.5,0.4-2.4,1.9-2,3.3
		c0.1,0.3,0.2,0.7,0.4,0.9c-1.1,0.4-1.8,1.6-1.7,2.8c0,0-2.7-0.9-2.7,2.2v1.8c-0.5-0.4-1.3-0.4-1.8,0c-0.9,0.8-0.7,3-0.4,4
		s7.6,11.3,9.9,12.4c1.4,0.6,2.6,1.5,3.8,2.5l5,6.1l9.3-8.8c0,0-5.7-5.6-6-6.7s0.7-4.5,0.6-5.8c-0.2-2.5-0.5-4.9-1-7.4
		C265.6,115.6,258.9,108.8,258.9,108.8z"/>
	<path class="st12" d="M263,145.2c-0.1-0.1-0.3-0.2-0.4-0.4l-1-1.2l-3.8-4.5l0,0c-0.6-0.5-1.2-1-1.9-1.4c-0.4-0.2-0.7-0.4-1.1-0.7
		c-0.4-0.2-0.8-0.4-1.2-0.7c-1.6-1.4-3-2.9-4.3-4.6c-1.4-1.8-2.9-3.7-4.3-5.8c-0.4-0.5-0.7-1.1-1-1.8c-0.2-0.7-0.2-1.3-0.2-2
		c0-0.7,0.2-1.5,0.6-2.1c0.3-0.3,0.7-0.5,1.1-0.5c0.4,0,0.8,0.1,1.1,0.4l-0.4,0.2v-1.5c0-0.5,0-1.1,0.2-1.6c0.2-0.6,0.6-1,1.1-1.2
		c0.6-0.2,1.1-0.2,1.7,0l-0.3,0.2c0-0.6,0.1-1.2,0.4-1.8c0.3-0.6,0.8-1,1.5-1.2l-0.2,0.4c-0.3-0.5-0.5-1.2-0.6-1.8
		c0-0.7,0.2-1.3,0.7-1.8c0.4-0.5,1-0.9,1.6-1.1c0.4-0.1,0.8-0.1,1.1,0.1c0.3,0.2,0.6,0.4,0.8,0.7l0,0l0.2,0.2
		c2.2,2.4,4.3,4.8,6.4,7.2l-0.5,0.2c0-0.6,0-1.2,0-1.8l0.1,0.2c-1-0.9-1.7-2-2.1-3.3c-0.2-0.6-0.2-1.3-0.1-1.9
		c0-0.7,0.3-1.3,0.8-1.8l0.1-0.2l0.2,0.2c1.7,1.7,3.3,3.4,4.7,5c0.7,0.8,1.4,1.6,2.1,2.5c0.1,0.3,0.2,0.5,0.3,0.8
		c0,0.2,0.1,0.5,0.1,0.8l0.2,1.5c0.1,1,0.2,2,0.3,2.9c0,0.5,0.1,0.9,0.1,1.4c0.1,0.5,0.1,0.9,0,1.4c-0.4,1.5-0.6,3.1-0.7,4.7
		c0.1,0.3,0.3,0.6,0.5,0.9c0.2,0.3,0.4,0.5,0.6,0.8c0.4,0.5,0.8,0.9,1.2,1.4l2,2.1l1.1,1.3c0.2,0.1,0.3,0.3,0.4,0.5
		c-0.2-0.1-0.3-0.3-0.5-0.4l-1.3-1.3c-0.5-0.6-1.2-1.2-2-2.1c-0.4-0.4-0.8-0.9-1.2-1.4c-0.2-0.2-0.4-0.5-0.6-0.8
		c-0.3-0.3-0.4-0.6-0.5-1c-0.1-1.5,0.4-3.1,0.6-4.8c0.1-0.9,0-1.8-0.1-2.6c-0.1-0.9-0.2-1.9-0.4-2.9c-0.1-0.5-0.1-1-0.2-1.5
		c0-0.2-0.1-0.5-0.1-0.8c0-0.2-0.1-0.5-0.2-0.7c-0.6-0.9-1.3-1.7-2-2.4c-1.5-1.6-3.1-3.3-4.8-5h0.3c-0.3,0.4-0.5,1-0.6,1.5
		c-0.1,0.6,0,1.2,0.1,1.8c0.4,1.2,1.1,2.2,2,3l0.1,0.1v0.1c0,0.6,0,1.2,0,1.8v0.7l-0.5-0.5l-6.4-7.2l-0.2-0.2l0,0l0,0
		c-0.2-0.5-0.8-0.7-1.3-0.6c-0.5,0.2-1,0.5-1.4,0.9c-0.4,0.4-0.6,0.9-0.5,1.5c0,0.5,0.2,1.1,0.5,1.5l0.1,0.3l-0.3,0.1
		c-0.5,0.2-0.9,0.5-1.2,1c-0.2,0.5-0.3,1-0.3,1.5v0.3l-0.3-0.1c-0.4-0.1-0.9-0.1-1.4,0c-0.4,0.2-0.7,0.5-0.8,0.9
		c-0.1,0.5-0.2,0.9-0.1,1.4v2l-0.4-0.3c-0.4-0.4-1.1-0.4-1.6,0c-0.4,0.5-0.5,1.1-0.5,1.8c0,0.6,0.1,1.3,0.2,1.9
		c0.3,0.6,0.6,1.1,0.9,1.6c1.4,2.1,2.8,4.1,4.2,5.8c1.2,1.7,2.6,3.2,4.2,4.6c0.2,0.1,0.4,0.2,0.6,0.4l0.6,0.3
		c0.4,0.2,0.8,0.4,1.2,0.7c0.7,0.4,1.3,0.9,1.9,1.5l0,0l3.7,4.6l1,1.2C262.8,144.9,262.9,145.1,263,145.2z"/>
	<path class="st12" d="M255.4,119.1c-1-0.8-1.9-1.8-2.6-2.8c-0.9-0.9-1.6-2-2.2-3.2c1,0.8,1.9,1.8,2.6,2.8
		C254.1,116.9,254.8,118,255.4,119.1z"/>
	<path class="st12" d="M251.9,120.5c-0.1,0.1-1-0.7-1.8-1.9c-0.5-0.7-0.9-1.6-0.9-2.4c0.1-0.1,0.6,1,1.4,2.2
		C251.1,118.9,251.6,119.7,251.9,120.5z"/>
	<path class="st12" d="M247.7,123.1c-0.1,0.1-0.6-0.5-1-1.3s-0.7-1.5-0.5-1.6s0.6,0.5,1,1.3S247.8,123,247.7,123.1z"/>
	<rect x="232.8" y="166.6" class="st3" width="17.9" height="3.9"/>
	<path class="st10" d="M226,224.7c0,0,0.6,14.2,32.5,13.1s44.6-13.1,44.6-13.1v14.9c0,0-34.5,13.7-58.4,10.3
		c-18.7-2.7-23-10.3-23-10.3L226,224.7z"/>
	<path class="st10" d="M246.6,258.6L246.6,258.6c-2.7,0-4.8-2.2-4.8-4.8v-20.1c0-2.7,2.2-4.8,4.8-4.8l0,0c2.7,0,4.8,2.2,4.8,4.8
		v20.1C251.4,256.4,249.3,258.6,246.6,258.6z"/>
	<path class="st3" d="M246.6,258.6c0.2-0.1,0.5-0.1,0.7-0.1c0.7-0.1,1.3-0.4,1.9-0.8c0.9-0.6,1.5-1.5,1.9-2.5c0.2-0.6,0.3-1.3,0.2-2
		c0-0.7,0-1.5,0-2.3c0-3.2,0-7,0-11.2c0-2.1,0-4.4,0-6.6c-0.2-2.5-2.5-4.4-5-4.1c-2.2,0.2-3.9,1.9-4.1,4.1c-0.1,2.2,0,4.5,0,6.6
		c0,4.2,0,8-0.1,11.2c0,0.8,0,1.6,0,2.3c-0.1,0.7,0,1.4,0.2,2c0.3,1,1,1.9,1.9,2.5c0.6,0.4,1.2,0.6,1.9,0.8c0.2,0,0.5,0.1,0.7,0.1
		c-0.2,0-0.5,0-0.7,0c-0.7-0.1-1.4-0.3-2-0.7c-0.9-0.6-1.6-1.5-2-2.6c-0.2-0.6-0.3-1.3-0.3-2c0-0.7,0-1.5,0-2.3c0-3.2,0-7-0.1-11.2
		c0-2.1,0-4.3,0-6.7c0.3-2.6,2.4-4.6,5.1-4.6c1.2,0,2.4,0.5,3.3,1.3c0.9,0.8,1.5,2,1.6,3.2c0,2.4,0,4.5,0,6.7c0,4.2,0,8-0.1,11.2
		c0,0.8,0,1.6,0,2.3c0,0.7-0.1,1.4-0.3,2c-0.4,1.1-1.1,2-2,2.6c-0.6,0.4-1.3,0.6-2,0.7C247,258.6,246.8,258.6,246.6,258.6z"/>
	<path class="st10" d="M246.6,236.4c-0.6,0.1-1.1,0.6-1.1,1.1c-0.1,0.6,0.3,1.1,0.9,1.3c0.6,0.1,1.3-0.3,1.4-0.9
		c0.1-0.7-0.3-1.3-1-1.5C246.7,236.4,246.6,236.4,246.6,236.4"/>
	<path class="st3" d="M246.6,236.4c0,0,0.1-0.1,0.3,0c0.3,0,0.6,0.2,0.8,0.4c0.3,0.4,0.4,0.9,0.3,1.3c-0.2,0.6-0.7,0.9-1.3,1
		c-0.6,0-1.2-0.3-1.4-0.9c-0.2-0.5-0.1-1,0.2-1.3C246,236.3,246.6,236.3,246.6,236.4c0,0.1-0.4,0.2-0.8,0.7
		c-0.2,0.3-0.2,0.6-0.1,0.9c0.1,0.4,0.5,0.6,0.9,0.6c0.4-0.1,0.7-0.3,0.9-0.6c0.1-0.3,0-0.7-0.1-0.9
		C247,236.5,246.5,236.5,246.6,236.4z"/>
	<path class="st10" d="M246.6,248.3c-0.6,0.1-1.1,0.5-1.2,1.1c-0.1,0.6,0.3,1.1,0.9,1.3c0.7,0.1,1.3-0.3,1.4-1
		c0.1-0.7-0.3-1.3-1-1.5C246.7,248.3,246.6,248.3,246.6,248.3"/>
	<path class="st3" d="M246.6,248.3c0,0,0.1-0.1,0.3,0c0.3,0,0.6,0.2,0.8,0.4c0.3,0.4,0.4,0.8,0.3,1.3c-0.2,0.6-0.7,0.9-1.3,1
		c-0.6,0-1.2-0.3-1.4-0.9c-0.2-0.5-0.1-1,0.2-1.3C246.1,248.1,246.6,248.2,246.6,248.3c0,0-0.4,0.1-0.7,0.7
		c-0.2,0.3-0.2,0.6-0.1,0.9c0.1,0.4,0.5,0.6,0.9,0.6c0.4-0.1,0.7-0.3,0.9-0.6c0.1-0.3,0-0.7-0.1-0.9
		C247.1,248.4,246.6,248.4,246.6,248.3z"/>
	<path class="st10" d="M234,257.6L234,257.6c-2.7,0-4.8-2.2-4.8-4.8v-20.1c0-2.7,2.2-4.8,4.8-4.8l0,0c2.7,0,4.8,2.2,4.8,4.8v20.1
		C238.8,255.5,236.7,257.6,234,257.6L234,257.6z"/>
	<path class="st3" d="M234,257.6c0,0,0.2,0,0.7-0.1c0.7-0.1,1.3-0.4,1.9-0.8c0.9-0.6,1.6-1.5,1.9-2.5c0.2-0.6,0.3-1.3,0.2-2
		c0-0.7,0-1.5,0-2.3c0-3.2,0-7,0-11.2c0-2.1,0-4.4,0-6.6c-0.2-2.5-2.5-4.4-5-4.1c-2.2,0.2-3.9,1.9-4.1,4.1c-0.1,2.2,0,4.5,0,6.6
		c0,4.2,0,8-0.1,11.2c0,0.8,0,1.6,0,2.3c-0.1,0.7,0,1.4,0.2,2c0.3,1,1,1.9,1.9,2.5c0.6,0.4,1.2,0.6,1.9,0.8c0.5,0.1,0.7,0.1,0.7,0.1
		c-0.2,0-0.5,0-0.7,0c-0.7-0.1-1.4-0.3-2-0.7c-0.9-0.6-1.6-1.5-2-2.6c-0.2-0.7-0.3-1.4-0.3-2.1c0-0.7,0-1.5,0-2.3
		c0-3.2,0-7-0.1-11.2c0-2.1,0-4.3,0-6.7c0.1-1.2,0.7-2.4,1.6-3.2c2-1.8,5-1.8,6.9,0c0.9,0.8,1.5,2,1.6,3.2c0.1,2.4,0,4.5,0,6.7
		c0,4.2,0,8-0.1,11.2c0,0.8,0,1.6,0,2.3c0,0.7-0.1,1.4-0.3,2.1c-0.4,1.1-1.1,2-2,2.6c-0.6,0.4-1.3,0.6-2,0.7
		C234.6,257.7,234.3,257.7,234,257.6z"/>
	<path class="st10" d="M234,236.4c-0.6,0.1-1.1,0.6-1.1,1.1c-0.1,0.6,0.3,1.1,0.9,1.3c0.6,0.1,1.3-0.3,1.4-0.9
		c0.1-0.7-0.3-1.3-1-1.5C234.1,236.4,234.1,236.4,234,236.4"/>
	<path class="st3" d="M234,236.4c0,0,0.1-0.1,0.3,0c0.3,0,0.6,0.2,0.8,0.4c0.3,0.4,0.4,0.9,0.3,1.3c-0.2,0.6-0.7,0.9-1.3,1
		c-0.6,0-1.2-0.3-1.4-0.9c-0.2-0.5-0.1-1,0.2-1.3C233.5,236.3,234,236.3,234,236.4c0,0.1-0.4,0.2-0.8,0.7c-0.2,0.3-0.2,0.6-0.1,0.9
		c0.1,0.4,0.5,0.6,0.9,0.6c0.4-0.1,0.7-0.3,0.9-0.6c0.1-0.3,0-0.7-0.1-0.9C234.4,236.5,233.9,236.5,234,236.4z"/>
	<path class="st10" d="M229,241.8c3,2,6.8,2.3,10,0.8"/>
	<path class="st3" d="M238.9,242.6c-0.4,0.3-0.9,0.6-1.4,0.7c-2.4,0.8-5.1,0.6-7.4-0.6c-0.9-0.5-1.3-0.9-1.2-0.9
		c1.6,0.7,3.2,1.2,4.9,1.4C235.6,243.3,237.3,243.1,238.9,242.6z"/>
	<path class="st10" d="M302,247.9L302,247.9c-2.7,0-4.8-2.2-4.8-4.8v-20.1c0-2.7,2.1-4.9,4.8-4.9c0,0,0,0,0,0l0,0
		c2.7,0,4.8,2.2,4.8,4.8V243C306.9,245.7,304.7,247.8,302,247.9C302,247.9,302,247.9,302,247.9z"/>
	<path class="st3" d="M302,247.9c0.2,0,0.5-0.1,0.7-0.1c0.7-0.1,1.3-0.4,1.9-0.8c0.9-0.6,1.5-1.5,1.9-2.5c0.2-0.6,0.3-1.3,0.2-2
		c0-0.7,0-1.5,0-2.3c0-3.2,0-7,0-11.2c0-2.1,0-4.4,0-6.6c-0.2-2.5-2.5-4.4-5-4.1c-2.2,0.2-3.9,1.9-4.1,4.1c0,2.2,0,4.5,0,6.6
		c0,4.2,0,8-0.1,11.2c0,0.8,0,1.6,0,2.3c0,0.7,0,1.4,0.2,2c0.3,1,1,1.9,1.9,2.5c0.6,0.4,1.2,0.6,1.9,0.8c0.2,0,0.5,0.1,0.7,0.1
		c-0.2,0-0.5,0-0.7,0c-0.7-0.1-1.4-0.3-2-0.7c-0.9-0.6-1.6-1.5-2-2.6c-0.2-0.6-0.3-1.3-0.3-2c0-0.7,0-1.5,0-2.3c0-3.2,0-7,0-11.2
		c0-2.1,0-4.3,0-6.7c0.3-2.8,2.8-4.8,5.6-4.5c2.4,0.3,4.3,2.1,4.5,4.5c0,2.4,0,4.5,0,6.7c0,4.2,0,8-0.1,11.2c0,0.8,0,1.6,0,2.3
		c0,0.7-0.1,1.4-0.3,2c-0.4,1.1-1.1,2-2,2.6c-0.6,0.4-1.3,0.6-2,0.7C302.6,247.9,302.3,247.9,302,247.9z"/>
	<path class="st10" d="M302,225.6c-0.6,0.1-1.1,0.5-1.1,1.1c-0.1,0.6,0.3,1.1,0.9,1.3c0.6,0.1,1.3-0.3,1.4-0.9
		c0.1-0.7-0.3-1.3-1-1.5C302.1,225.6,302.1,225.6,302,225.6"/>
	<path class="st3" d="M302,225.6c0,0,0.1-0.1,0.3,0c0.3,0,0.6,0.2,0.8,0.4c0.3,0.4,0.4,0.9,0.3,1.3c-0.2,0.6-0.7,0.9-1.3,1
		c-0.6,0-1.2-0.3-1.4-0.9c-0.2-0.5-0.1-1,0.2-1.3C301.5,225.5,302,225.6,302,225.6c0,0.1-0.4,0.2-0.8,0.7c-0.2,0.3-0.2,0.6-0.1,0.9
		c0.1,0.4,0.5,0.6,0.9,0.6c0.4-0.1,0.7-0.3,0.9-0.6c0.1-0.3,0-0.7-0.1-0.9C302.5,225.7,302,225.7,302,225.6z"/>
	<path class="st10" d="M302,237.6c-0.6,0.1-1,0.5-1.1,1.1c-0.1,0.6,0.3,1.2,0.9,1.3c0.7,0.1,1.3-0.4,1.4-1c0.1-0.7-0.3-1.3-1-1.5
		C302.1,237.5,302.1,237.5,302,237.6"/>
	<path class="st3" d="M302,237.6c0,0,0.1-0.1,0.3,0c0.3,0,0.6,0.2,0.8,0.4c0.3,0.4,0.4,0.9,0.3,1.3c-0.2,0.6-0.7,0.9-1.3,1
		c-0.6,0-1.2-0.3-1.4-0.9c-0.1-0.5,0-1,0.3-1.4C301.5,237.4,302.1,237.5,302,237.6c0,0.1-0.4,0.2-0.7,0.7c-0.2,0.3-0.2,0.6-0.1,0.9
		c0.1,0.4,0.5,0.6,0.9,0.6c0.4-0.1,0.7-0.3,0.9-0.6c0.1-0.3,0-0.7-0.1-0.9C302.5,237.7,302,237.6,302,237.6z"/>
	<path class="st10" d="M289,252.5L289,252.5c-2.7,0-4.8-2.2-4.8-4.8v-20.1c0-2.7,2.2-4.8,4.8-4.8l0,0c2.7,0,4.8,2.2,4.8,4.8
		c0,0,0,0,0,0v20.1C293.8,250.3,291.7,252.5,289,252.5C289,252.5,289,252.5,289,252.5z"/>
	<path class="st3" d="M289,252.5c0,0,0.2,0,0.7-0.1c0.7-0.1,1.3-0.4,1.9-0.8c0.9-0.6,1.6-1.5,1.9-2.5c0.2-0.6,0.3-1.3,0.2-2
		c0-0.7,0-1.5,0-2.3c0-3.2,0-7-0.1-11.2c0-2.1,0-4.4,0-6.6c-0.3-2.3-2.3-4.1-4.6-4c-1.2,0-2.3,0.4-3.1,1.2c-0.8,0.8-1.3,1.8-1.5,2.9
		c0,2.2,0,4.5,0,6.6c0,4.2,0,8,0,11.2c0,0.8,0,1.6,0,2.3c-0.1,0.7,0,1.4,0.2,2c0.3,1,1,1.9,1.9,2.5c0.6,0.4,1.2,0.6,1.9,0.8
		C288.8,252.6,289.1,252.6,289,252.5c-0.2,0.1-0.4,0.1-0.7,0.1c-0.7-0.1-1.4-0.3-2-0.7c-0.9-0.6-1.6-1.5-2-2.6
		c-0.2-0.7-0.3-1.4-0.3-2.1c0-0.7,0-1.5,0-2.3c0-3.2,0-7-0.1-11.2c0-2.1,0-4.3,0-6.7c0.3-2.6,2.5-4.6,5.1-4.6c1.3,0,2.5,0.5,3.5,1.4
		c0.8,0.8,1.4,1.9,1.5,3.1c0,2.4,0,4.5,0,6.7c0,4.2,0,8,0,11.2c0,0.8,0,1.6,0,2.3c0,0.7-0.1,1.4-0.3,2.1c-0.4,1.1-1.1,2-2,2.6
		c-0.6,0.4-1.3,0.6-2,0.7C289.4,252.5,289.2,252.5,289,252.5z"/>
	<path class="st10" d="M288.9,231.2c-0.6,0.1-1.1,0.5-1.2,1.1c-0.1,0.6,0.3,1.1,0.9,1.3c0.7,0.1,1.3-0.3,1.5-1
		c0.1-0.7-0.3-1.3-1-1.5C289.1,231.2,289,231.2,288.9,231.2"/>
	<path class="st3" d="M288.9,231.2c0,0,0.1-0.1,0.3,0c0.3,0,0.6,0.2,0.8,0.4c0.3,0.4,0.4,0.9,0.3,1.3c-0.2,0.6-0.7,0.9-1.3,1
		c-0.6,0-1.2-0.3-1.4-0.9c-0.2-0.5-0.1-1,0.2-1.3C288.4,231.1,289,231.2,288.9,231.2c0,0.1-0.4,0.2-0.8,0.7
		c-0.2,0.3-0.2,0.6-0.1,0.9c0.1,0.4,0.5,0.6,0.9,0.6c0.4-0.1,0.7-0.3,0.9-0.6c0.1-0.3,0-0.7-0.1-0.9
		C289.4,231.4,288.9,231.3,288.9,231.2z"/>
	<path class="st10" d="M283.9,236.7c3,2,6.8,2.3,10,0.8"/>
	<path class="st3" d="M293.9,237.5c-0.4,0.3-0.9,0.6-1.4,0.7c-2.4,0.8-5.1,0.6-7.4-0.6c-0.9-0.5-1.3-0.9-1.2-0.9
		c1.6,0.7,3.2,1.2,4.9,1.4C290.5,238.2,292.3,238,293.9,237.5z"/>
	<path class="st10" d="M221.9,264.1L221.9,264.1c-2.8,0-5-2.3-4.9-5.1c0,0,0,0,0,0l0.6-36.6c0-2.8,2.3-5,5.1-4.9c0,0,0,0,0,0l0,0
		c2.8,0,5,2.3,4.9,5.1c0,0,0,0,0,0l-0.6,36.6C227,261.9,224.7,264.1,221.9,264.1C221.9,264.1,221.9,264.1,221.9,264.1z"/>
	<path class="st3" d="M221.9,264.1c0,0,0.4,0,1-0.1c1-0.2,1.9-0.7,2.6-1.5c0.5-0.5,0.9-1.2,1.1-1.8c0.2-0.8,0.3-1.7,0.2-2.5
		c0-1.9,0-4,0.1-6.4c0.1-4.8,0.1-10.4,0.2-16.6c0-3.1,0.1-6.4,0.1-9.8c0-0.9,0-1.7,0-2.6c0-0.8-0.2-1.7-0.6-2.4
		c-1.2-2.3-4.1-3.2-6.4-2c-0.8,0.4-1.5,1.1-1.9,1.9c-0.4,0.7-0.6,1.5-0.6,2.4c0,0.9,0,1.7,0,2.6c-0.1,3.4-0.1,6.7-0.2,9.8
		c-0.1,6.2-0.2,11.9-0.3,16.6c0,2.4-0.1,4.5-0.1,6.4c-0.1,0.9,0,1.7,0.2,2.6c0.2,0.7,0.5,1.3,1,1.9c0.7,0.8,1.5,1.3,2.5,1.5
		c0.7,0.2,1,0.1,1,0.2c-0.4,0-0.7,0-1.1-0.1c-1-0.2-1.9-0.7-2.6-1.5c-0.5-0.6-0.9-1.2-1.1-1.9c-0.2-0.9-0.3-1.8-0.2-2.6
		c0-1.9,0-4,0.1-6.4c0-4.8,0.1-10.4,0.2-16.6c0-3.1,0.1-6.4,0.1-9.8v-2.6c0-0.9,0.2-1.8,0.7-2.6c1.4-2.5,4.7-3.4,7.2-2
		c0.9,0.5,1.6,1.2,2.1,2.1c0.4,0.8,0.6,1.7,0.6,2.6c0,0.9,0,1.7-0.1,2.6c-0.1,3.4-0.1,6.7-0.2,9.8c-0.1,6.2-0.2,11.9-0.3,16.6
		c-0.1,2.4-0.1,4.5-0.1,6.4c0,0.9-0.1,1.8-0.3,2.6c-0.2,0.7-0.7,1.4-1.2,1.9c-0.7,0.7-1.7,1.2-2.7,1.4
		C222.5,264.1,222.2,264.1,221.9,264.1z"/>
	<path class="st3" d="M258.3,237.1l0.9,13.5c0.1,0.9,0.9,1.6,1.8,1.6l9.4-0.6c0.9-0.1,1.6-0.9,1.6-1.8l-0.9-13.5
		c-0.1-0.9-0.9-1.6-1.8-1.6l-9.4,0.6C259,235.4,258.3,236.2,258.3,237.1z M268.4,249.9l-6,0.4c-0.9,0.1-1.7-0.6-1.8-1.5c0,0,0,0,0,0
		l-0.6-9.5c-0.1-0.9,0.6-1.7,1.6-1.8l6-0.4c0.9-0.1,1.7,0.6,1.8,1.6l0.6,9.5C270.1,249,269.4,249.8,268.4,249.9L268.4,249.9z"/>
	<path class="st3" d="M274.2,241.8c-1.5-0.5-3-0.7-4.6-0.7c-1.5,0.2-3.1,0.5-4.5,1.1c0,0,0.4-0.4,1.2-0.8c1-0.5,2.2-0.8,3.3-0.9
		c1.1-0.1,2.3,0.1,3.4,0.5C273.8,241.4,274.3,241.7,274.2,241.8z"/>
	<path class="st3" d="M274.5,245.3c-2.9-1.1-6.1-0.9-8.8,0.6c0,0,0.3-0.4,1.1-0.9c2-1.1,4.4-1.3,6.5-0.5
		C274.1,244.9,274.5,245.2,274.5,245.3z"/>
</g>
<g id="freepik--error-403--inject-65">
	
		<rect x="420.8" y="58.6" transform="matrix(0.9957 -9.271816e-02 9.271816e-02 0.9957 -12.7969 49.3417)" class="st6" width="207.6" height="207.6"/>
	<path class="st3" d="M637.6,256.1c0,0,0-0.3-0.1-1s-0.2-1.6-0.3-2.9c-0.2-2.5-0.6-6.2-1.1-11.1c-0.9-9.7-2.3-23.9-4-42
		c-3.4-36.2-8.3-87.8-14.1-149.7l0.3,0.3L411.7,69l0,0l0.3-0.4l19.2,206.7l-0.3-0.3l149.8-13.8l42-3.8l11.1-1l2.8-0.2L637.6,256.1
		l-0.9,0.1l-2.8,0.3l-11,1.1l-42,4l-149.9,14.1h-0.3v-0.3c-5.6-60.1-12.2-131-19.3-206.7v-0.3h0.3l0,0l206.7-19.2h0.3v0.3
		c5.7,62,10.5,113.7,13.8,150c1.7,18.1,2.9,32.3,3.8,42c0.4,4.8,0.8,8.5,1,11c0.1,1.2,0.2,2.2,0.2,2.8S637.6,256.1,637.6,256.1z"/>
	
		<rect x="421.7" y="55" transform="matrix(0.9957 -9.271816e-02 9.271816e-02 0.9957 -4.2853 39.8075)" class="st4" width="9.1" height="22.1"/>
	
		<rect x="441" y="261.8" transform="matrix(0.9957 -9.271816e-02 9.271816e-02 0.9957 -23.3795 42.4847)" class="st4" width="9.1" height="22.1"/>
	
		<rect x="602.7" y="38.1" transform="matrix(0.9957 -9.271816e-02 9.271816e-02 0.9957 -1.9412 56.5194)" class="st4" width="9.1" height="22.1"/>
	
		<rect x="622.1" y="246.4" transform="matrix(0.9957 -9.271816e-02 9.271816e-02 0.9957 -21.1677 59.2138)" class="st4" width="9.1" height="22.1"/>
	
		<ellipse transform="matrix(0.7071 -0.7071 0.7071 0.7071 66.5682 403.9095)" class="st6" cx="520.8" cy="121.6" rx="45.4" ry="45.4"/>
	<path class="st1" d="M520.8,167.6c-25.4-0.1-46-20.7-45.9-46.1s20.7-46,46.1-45.9c23.7,0,43.5,18.1,45.7,41.7l0,0
		c2.3,25.3-16.3,47.7-41.6,50.1C523.7,167.6,522.2,167.6,520.8,167.6z M520.9,76.8c-1.4,0-2.8,0.1-4.2,0.2
		c-24.6,2.3-42.6,24.1-40.3,48.7c2.3,24.6,24.1,42.6,48.7,40.3c24.6-2.3,42.6-24.1,40.3-48.7C563.2,94.3,543.9,76.8,520.9,76.8z"/>
	<path class="st1" d="M541.9,116.3c-1-1.5-3-1.9-4.4-0.9c-0.3,0.2-0.5,0.4-0.7,0.6c-0.6,1-1.1,2-1.4,3.1c-0.9,2.8-1.7,5.5-2.5,8.3
		c-0.1,0.3-0.4,0.5-0.7,0.8c-0.2-0.3-0.5-0.6-0.5-0.9c-0.2-1.6-0.4-3.2-0.5-4.7c-0.3-3.1-0.5-6.2-0.8-9.3c-0.5-5.2-1-10.4-1.5-15.7
		c-0.1-0.6-0.3-1.2-0.7-1.6c-0.9-0.9-2.3-1.2-3.5-0.6c-1.1,0.6-1.7,1.8-1.6,3c0.5,5.5,1,11.1,1.5,16.6c0,0.3,0,0.5,0,0.8
		c-0.1,0.2-0.3,0.5-0.5,0.5c-0.2,0-0.4-0.2-0.6-0.4c-0.1-0.2-0.1-0.5-0.1-0.8l-1.8-19.3c0-0.4-0.1-0.8-0.1-1.2c-0.1-1-1-1.8-2-1.9
		c-1.6-0.4-3.2,0.5-3.7,2.1c-0.1,0.4-0.1,0.9-0.1,1.3c0.6,6.3,1.2,12.7,1.8,19c0,0.4,0,0.7,0,1.1c-0.1,0.2-0.2,0.4-0.5,0.5
		c-0.2,0-0.5-0.2-0.6-0.4c-0.1-0.3-0.2-0.7-0.2-1c-0.5-5.1-0.9-10.2-1.4-15.2c-0.2-1.6-1.7-2.7-3.3-2.5c-1.5,0.2-2.6,1.5-2.5,3.1
		c0.5,5.4,1,10.8,1.5,16.2c0.1,0.3,0.1,0.7,0.1,1c-0.1,0.3-0.3,0.6-0.5,0.8c-0.2-0.2-0.6-0.5-0.7-0.7c-0.2-1.9-0.4-3.9-0.5-5.9
		s-0.4-4.2-0.6-6.2c-0.2-1.5-1.5-2.6-3-2.4c-0.1,0-0.2,0-0.2,0c-1.4,0.1-2.5,1.3-2.4,2.7c0,0.1,0,0.1,0,0.2
		c0.3,4.1,0.5,8.1,0.8,12.2l0,0c0.2,2.5,0.4,5,0.5,7.4c0.1,5,1.3,9.8,3.3,14.4c1.8,4.2,5.5,7.1,10,7.9c4.9,0.9,10-0.1,14.1-2.8
		c2.9-1.7,5.1-4.5,6-7.7c1.7-6.3,3.2-12.6,4.7-18.9C542.4,118,542.3,117.1,541.9,116.3z"/>
	<path class="st3" d="M477,235.6l0.1,1.5l-8.6,0.8l-1.1-11.9l8.4-0.8l0.1,1.5l-6.7,0.6l0.3,3.6l6-0.6l0.1,1.4l-6,0.6l0.4,3.8
		L477,235.6z"/>
	<path class="st3" d="M483.7,227.3l0.1,1.6h-0.4c-1.7,0.2-2.7,1.3-2.5,3.3l0.4,4.5l-1.6,0.1l-0.8-9l1.6-0.1l0.1,1.5
		C481.1,228,482.4,227.3,483.7,227.3z"/>
	<path class="st3" d="M490.5,226.7l0.1,1.6h-0.4c-1.8,0.2-2.7,1.3-2.5,3.3l0.4,4.5l-1.6,0.1l-0.8-9l1.6-0.1l0.1,1.5
		C488,227.4,489.2,226.7,490.5,226.7z"/>
	<path class="st3" d="M492,231.2c-0.3-2.6,1.6-4.9,4.2-5.2s4.9,1.6,5.2,4.2s-1.6,4.9-4.2,5.2c0,0-0.1,0-0.1,0
		c-2.5,0.3-4.7-1.4-5.1-3.8C492,231.4,492,231.3,492,231.2z M499.7,230.4c-0.3-1.6-1.8-2.8-3.4-2.5c-1.6,0.3-2.8,1.8-2.5,3.4
		c0.2,1.6,1.6,2.7,3.2,2.5c1.7-0.1,2.9-1.6,2.7-3.2C499.7,230.6,499.7,230.5,499.7,230.4L499.7,230.4z"/>
	<path class="st3" d="M508,225.1l0.1,1.6h-0.4c-1.7,0.2-2.7,1.3-2.5,3.3l0.4,4.5l-1.6,0.1l-0.8-9l1.6-0.1l0.1,1.5
		C505.5,225.8,506.7,225,508,225.1z"/>
	<path class="st3" d="M516.5,222.9l0.4,4.1l6-0.6l0.1,1.5l-6,0.6l0.5,4.8l-1.7,0.2l-1.1-11.9l8.4-0.8l0.1,1.5L516.5,222.9z"/>
	<path class="st3" d="M524.8,228.1c-0.3-2.6,1.6-4.9,4.2-5.2s4.9,1.6,5.2,4.2c0.3,2.6-1.6,4.9-4.2,5.2c0,0,0,0-0.1,0
		c-2.5,0.3-4.7-1.4-5.1-3.8C524.8,228.3,524.8,228.2,524.8,228.1z M532.5,227.4c-0.3-1.6-1.8-2.8-3.4-2.5s-2.8,1.8-2.5,3.4
		c0.2,1.6,1.6,2.7,3.2,2.5c1.7-0.1,2.9-1.6,2.8-3.2C532.5,227.5,532.5,227.5,532.5,227.4L532.5,227.4z"/>
	<path class="st3" d="M540.8,222l0.2,1.6h-0.4c-1.7,0.2-2.7,1.3-2.5,3.3l0.4,4.5l-1.6,0.1l-0.8-9l1.6-0.1l0.1,1.5
		C538.3,222.7,539.5,222,540.8,222z"/>
	<path class="st3" d="M552.5,225.5c0.3,2.4-1.3,4.6-3.7,5c-0.1,0-0.3,0-0.4,0c-1.2,0.2-2.5-0.3-3.3-1.2l0.1,1.4l-1.6,0.1l-1.2-12.6
		l1.6-0.1l0.5,5c0.7-1,1.8-1.7,3-1.7c2.4-0.3,4.6,1.3,4.9,3.7C552.5,225.3,552.5,225.4,552.5,225.5z M550.9,225.7
		c-0.3-1.6-1.8-2.8-3.4-2.5c-1.6,0.3-2.8,1.8-2.5,3.4c0.2,1.5,1.6,2.7,3.2,2.5c1.7-0.1,2.9-1.6,2.8-3.2
		C550.9,225.8,550.9,225.8,550.9,225.7z"/>
	<path class="st3" d="M553.8,218.1c-0.1-0.6,0.4-1.1,1-1.2c0,0,0,0,0,0c0.6-0.1,1.1,0.3,1.2,0.9c0,0,0,0,0,0
		c0.1,0.6-0.4,1.1-0.9,1.2c0,0,0,0-0.1,0C554.4,219.1,553.9,218.7,553.8,218.1C553.8,218.1,553.8,218.1,553.8,218.1z M554.3,220.8
		l1.6-0.1l0.8,9l-1.6,0.1L554.3,220.8z"/>
	<path class="st3" d="M567.2,216l1.2,12.6l-1.6,0.1l-0.1-1.4c-0.7,1.1-1.8,1.8-3.1,1.8c-2.5,0.2-4.8-1.6-5-4.2
		c-0.2-2.5,1.6-4.8,4.2-5c1.2-0.2,2.4,0.3,3.3,1.1l-0.5-5L567.2,216z M566.4,224.2c-0.3-1.6-1.8-2.8-3.4-2.5
		c-1.6,0.3-2.8,1.8-2.5,3.4c0.2,1.5,1.6,2.6,3.2,2.5c1.7-0.1,2.9-1.6,2.7-3.2C566.4,224.4,566.4,224.3,566.4,224.2z"/>
	<path class="st3" d="M578.8,214.9l1.2,12.6l-1.6,0.1l-0.1-1.4c-0.7,1.1-1.8,1.8-3.1,1.8c-2.5,0.2-4.8-1.7-5-4.2
		c-0.2-2.5,1.6-4.7,4.1-5c1.2-0.2,2.4,0.3,3.3,1.1l-0.5-4.9L578.8,214.9z M577.9,223.2c-0.3-1.6-1.8-2.8-3.4-2.5s-2.8,1.8-2.5,3.4
		c0.2,1.6,1.6,2.7,3.2,2.5c1.7-0.1,2.9-1.6,2.8-3.2C578,223.3,578,223.2,577.9,223.2z"/>
	<path class="st3" d="M590.8,222.5l-7.3,0.7c0.3,1.6,1.9,2.6,3.5,2.3c1-0.1,1.9-0.5,2.5-1.3l1,1c-1.7,2.1-4.8,2.4-6.9,0.7
		c-0.9-0.8-1.6-1.9-1.7-3.1c-0.3-2.4,1.4-4.6,3.8-5c0.1,0,0.2,0,0.3,0c2.4-0.3,4.6,1.4,4.8,3.8c0,0.1,0,0.3,0,0.4
		C590.8,222.2,590.8,222.4,590.8,222.5z M583.4,222l5.8-0.5c-0.3-1.6-1.9-2.6-3.5-2.2C584.4,219.6,583.4,220.7,583.4,222z"/>
	<path class="st3" d="M601.5,220.3l0.5,5.2l-1.6,0.2l-0.5-5c-0.2-1.8-1.1-2.6-2.7-2.4c-1.5,0-2.7,1.2-2.6,2.7c0,0.2,0,0.4,0.1,0.5
		l0.4,4.6l-1.6,0.1l-0.8-9l1.6-0.1l0.1,1.4c0.7-1.1,1.9-1.7,3.1-1.7C599.6,216.5,601.2,217.6,601.5,220.3z"/>
	<path class="st3" d="M508.2,206.2l-6.7,0.6l0.8,8.6l-6.8,0.6l-0.8-8.6l-20.7,1.9l-0.5-4.9l16.4-26.1l7.5-0.7L482,202.7l12.4-1.2
		l-0.7-7.6l6.6-0.6l0.7,7.6l6.7-0.6L508.2,206.2z"/>
	<path class="st3" d="M510.2,195.6c-1.1-12.4,5-20.1,14-20.9s16.5,5.6,17.6,18s-5,20.1-14,20.9S511.4,208,510.2,195.6z M534.7,193.3
		c-0.8-9.1-4.8-13-10-12.5s-8.3,5-7.5,14.2s4.8,13,9.9,12.5S535.6,202.5,534.7,193.3z"/>
	<path class="st3" d="M573.6,197.3c0.6,6.4-3.7,12.3-13.9,13.3c-5.3,0.5-10.8-0.6-14.6-3.1l2.5-5.7c3.4,2.2,7.4,3.1,11.4,2.7
		c5-0.5,7.8-3,7.5-6.5s-3-5.4-8.7-4.9l-3.5,0.3l-0.5-4.8l7.6-11l-17.2,1.6l-0.5-5.9l25.8-2.4l0.4,4.7l-8.2,11.8
		C569,187.7,573,191.7,573.6,197.3z"/>
</g>
</svg>
